<?xml version="1.0" encoding="utf-8"?>
<!-- Generator: Adobe Illustrator 28.0.0, SVG Export Plug-In . SVG Version: 6.00 Build 0)  -->
<svg version="1.1" id="Layer_1" xmlns="http://www.w3.org/2000/svg" xmlns:xlink="http://www.w3.org/1999/xlink" x="0px" y="0px"
	 viewBox="0 0 40 40" style="enable-background:new 0 0 40 40;" xml:space="preserve">
<style type="text/css">
	.st0{fill:none;}
	.st1{fill:currentColor;}
</style>
<rect class="st0" width="40" height="40"/>
<rect class="st0" width="40" height="40"/>
<path class="st1" d="M37,0H3C1.4,0,0,1.2,0,2.8V37c0,1.7,1.3,3,2.9,3c0,0,0,0,0.1,0h15V24.5h-5.2v-6H18v-4.4c0-5.2,3.1-8,7.7-8
	c1.5,0,3.1,0.1,4.7,0.3v5.4h-3.2c-2.5,0-3,1.2-3,3v3.8h5.9l-0.8,6h-5.2V40H37c1.6,0,3-1.2,3-2.9V2.9C40,1.3,38.7,0,37,0z"/>
</svg>
