<?xml version="1.0" encoding="utf-8"?>
<!-- Generator: Adobe Illustrator 25.0.0, SVG Export Plug-In . SVG Version: 6.00 Build 0)  -->
<svg version="1.1" id="Layer_1" xmlns="http://www.w3.org/2000/svg" xmlns:xlink="http://www.w3.org/1999/xlink" x="0px" y="0px"
	 viewBox="0 0 40 40" style="enable-background:new 0 0 40 40;" xml:space="preserve">
<style type="text/css">
	.st0{fill:none;}
	.st1{fill:currentColor;}
</style>
<rect x="0" y="0" class="st0" width="40" height="40"/>
<path class="st1" d="M39.2,16.4H20.4v7.4h11c-0.2,1.8-1.4,4.6-4.1,6.5c-1.7,1.2-4,2-6.9,2c-5.3,0-9.8-3.5-11.4-8.3
	c-0.4-1.2-0.7-2.6-0.7-4c0-1.4,0.2-2.7,0.6-4c1.6-4.8,6.1-8.3,11.4-8.3c3.8,0,6.3,1.6,7.7,3l5.6-5.5C30.3,2,25.8,0,20.4,0
	C12.6,0,5.8,4.5,2.5,11c-1.4,2.7-2.1,5.8-2.1,9s0.8,6.3,2.1,9c3.3,6.5,10,11,17.9,11c5.4,0,9.9-1.8,13.2-4.8c3.8-3.5,6-8.6,6-14.7
	C39.6,18.8,39.5,17.6,39.2,16.4z"/>
</svg>
