<?xml version="1.0" encoding="utf-8"?>
<!-- Generator: Adobe Illustrator 25.0.0, SVG Export Plug-In . SVG Version: 6.00 Build 0)  -->
<svg version="1.1" id="Layer_2_1_" xmlns="http://www.w3.org/2000/svg" xmlns:xlink="http://www.w3.org/1999/xlink" x="0px" y="0px"
	 viewBox="0 0 40 40" style="enable-background:new 0 0 40 40;" xml:space="preserve">
<style type="text/css">
	.st0{fill:none;}
	.st1{fill:currentColor;}
</style>
<rect class="st0" width="40" height="40"/>
<path class="st1" d="M19.9,0c-5.4,0-6.1,0-8.3,0.1C9.6,0.2,8.1,0.6,6.8,1.1S4.4,2.2,3.3,3.3C2.2,4.5,1.5,5.5,1.1,6.8
	c-0.5,1.3-0.8,2.7-0.9,4.8S0,14.5,0,19.9s0,6.1,0.1,8.3s0.5,3.5,0.9,4.8s1.2,2.5,2.2,3.5s2.2,1.8,3.5,2.4c1.3,0.5,2.7,0.8,4.8,0.9
	s2.8,0.1,8.3,0.1s6.1,0,8.3-0.1s3.5-0.5,4.8-0.9c1.3-0.5,2.5-1.2,3.5-2.4c1.1-1.1,1.8-2.2,2.4-3.5c0.5-1.3,0.8-2.7,0.9-4.8
	c0.1-2.1,0.1-2.8,0.1-8.3s0-6.1-0.1-8.3s-0.5-3.5-0.9-4.8c-0.5-1.3-1.2-2.5-2.4-3.5c-1.1-1.1-2.2-1.8-3.5-2.2
	c-1.3-0.5-2.7-0.8-4.8-0.9C26.1,0,25.4,0,19.9,0L19.9,0z M18.2,3.5c0.6,0,1.2,0,1.8,0c5.3,0,5.9,0,8,0.1c1.9,0.1,2.9,0.5,3.7,0.7
	c0.9,0.4,1.7,0.8,2.2,1.5c0.7,0.7,1.2,1.4,1.5,2.2c0.2,0.7,0.6,1.8,0.7,3.7c0.1,2.1,0.1,2.7,0.1,8s0,5.9-0.1,8
	c-0.1,1.9-0.5,2.9-0.7,3.7c-0.4,0.9-0.8,1.7-1.5,2.2c-0.7,0.7-1.4,1.2-2.2,1.5c-0.7,0.2-1.8,0.6-3.7,0.7c-2.1,0.1-2.7,0.1-8,0.1
	s-5.9,0-8-0.1C10,35.9,9,35.5,8.3,35.3c-0.9-0.4-1.7-0.8-2.2-1.5c-0.7-0.7-1.2-1.4-1.5-2.2c-0.2-0.7-0.6-1.8-0.7-3.7
	c-0.1-2-0.2-2.6-0.2-7.9s0-5.9,0.1-8C3.8,10,4.1,9,4.4,8.3C4.7,7.3,5.2,6.6,5.9,6c0.7-0.7,1.4-1.2,2.2-1.5c0.7-0.2,1.8-0.6,3.7-0.7
	C13.7,3.7,14.4,3.5,18.2,3.5L18.2,3.5z M30.6,6.8c-1.3,0-2.4,1.1-2.4,2.4s1.1,2.4,2.4,2.4c1.3,0,2.4-1.1,2.4-2.4S31.9,6.8,30.6,6.8
	L30.6,6.8z M19.9,9.7c-5.7,0-10.3,4.6-10.3,10.3s4.6,10.3,10.3,10.3s10.3-4.6,10.3-10.3S25.6,9.7,19.9,9.7L19.9,9.7z M19.9,13.3
	c3.7,0,6.6,2.9,6.6,6.6s-2.9,6.6-6.6,6.6s-6.6-2.9-6.6-6.6S16.3,13.3,19.9,13.3z"/>
</svg>
