<?xml version="1.0" encoding="utf-8"?>
<!-- Generator: Adobe Illustrator 25.2.1, SVG Export Plug-In . SVG Version: 6.00 Build 0)  -->
<svg version="1.1" id="Layer_1" xmlns="http://www.w3.org/2000/svg" xmlns:xlink="http://www.w3.org/1999/xlink" x="0px" y="0px"
	 viewBox="0 0 40 40" style="enable-background:new 0 0 40 40;" xml:space="preserve">
<style type="text/css">
	.st0{fill:currentColor;}
</style>
<path class="st0" d="M37,0H3C1.4,0,0,1.2,0,2.8c0,0,0,0,0,0v34.2C0,38.7,1.3,40,2.9,40c0,0,0,0,0.1,0h34c1.6,0,3-1.2,3-2.9
	c0,0,0,0,0,0V2.9C40,1.3,38.7,0,37,0C37,0,37,0,37,0z M11.9,34.1H5.9V15h5.9L11.9,34.1z M8.9,12.4c-1.9,0-3.4-1.6-3.4-3.5
	S7,5.5,8.9,5.5s3.4,1.6,3.4,3.5c0,0,0,0,0,0C12.3,10.9,10.8,12.4,8.9,12.4L8.9,12.4z M34.1,34.1h-5.9v-9.3c0-2.2,0-5.1-3.1-5.1
	s-3.6,2.4-3.6,4.9v9.4h-5.9V15h5.7v2.6h0.1c1.2-2,3.3-3.2,5.6-3.1c6,0,7.1,4,7.1,9.1L34.1,34.1z"/>
</svg>
