<?xml version="1.0" encoding="utf-8"?>
<!-- Generator: Adobe Illustrator 25.0.0, SVG Export Plug-In . SVG Version: 6.00 Build 0)  -->
<svg version="1.1" id="Layer_1" xmlns="http://www.w3.org/2000/svg" xmlns:xlink="http://www.w3.org/1999/xlink" x="0px" y="0px"
	 viewBox="0 0 40 40" style="enable-background:new 0 0 40 40;" xml:space="preserve">
<style type="text/css">
	.st0{fill:none;}
	.st1{fill:currentColor;}
</style>
<rect class="st0" width="40" height="40"/>
<rect class="st0" width="40" height="40"/>
<path class="st1" d="M39.2,10.4c-0.4-1.7-1.8-3-3.6-3.6C32.6,6,20,6,20,6S7.4,6,4.4,6.8c-1.7,0.4-3,1.8-3.6,3.6
	C0.2,13.5,0,16.8,0,20s0.2,6.5,0.8,9.6c0.4,1.7,1.8,3,3.6,3.6C7.4,34,20,34,20,34s12.6,0,15.6-0.8c1.7-0.4,3-1.8,3.6-3.6
	c0.6-3.1,0.8-6.4,0.8-9.6C40,16.8,39.8,13.5,39.2,10.4z M16,26V14l10.4,6L16,26z"/>
</svg>
