<?xml version="1.0" encoding="utf-8"?>
<!-- Generator: Adobe Illustrator 28.0.0, SVG Export Plug-In . SVG Version: 6.00 Build 0)  -->
<svg version="1.1" id="Layer_1" xmlns="http://www.w3.org/2000/svg" xmlns:xlink="http://www.w3.org/1999/xlink" x="0px" y="0px"
	 viewBox="0 0 20 20" style="enable-background:new 0 0 20 20;" xml:space="preserve">
<style type="text/css">
	.st0{opacity:0.75;fill:#656565;}
	.st1{fill:#656565;}
	.st2{fill:none;}
</style>
<g>
	<path class="st0" d="M18.7,15l-0.3-1.2l0.7-1.2L18,11.4l-1.2,0.7l-1.2-0.4l-0.7-1.2l-1.6,0.4l-0.1,1.4l-0.9,0.9l-1.4,0l-0.5,1.6
		l1.2,0.8l0.3,1.2l-0.7,1.2l1.1,1.2l1.2-0.7l1.2,0.3l0.7,1.2l1.6-0.4l0.1-1.4l0.9-0.9l1.4,0l0.5-1.6L18.7,15z M14.7,17
		c-1-0.3-1.5-1.3-1.2-2.3c0.3-1,1.3-1.5,2.3-1.2c1,0.3,1.5,1.3,1.2,2.3C16.7,16.8,15.7,17.3,14.7,17z"/>
	<path class="st1" d="M13.6,7.7V5.9l-1.8-0.4l-0.5-1.2l1-1.6L11,1.4l-1.6,1L8.2,1.8L7.8,0H6L5.5,1.8L4.3,2.3l-1.6-1L1.4,2.6l1,1.6
		L1.9,5.5L0.1,5.9v1.8l1.8,0.4l0.5,1.2l-1,1.6l1.3,1.3l1.6-1l1.2,0.5L6,13.6h1.8l0.4-1.8l1.2-0.5l1.6,1l1.3-1.3l-1-1.6l0.5-1.2
		L13.6,7.7L13.6,7.7z M7.2,9.5c-1.5,0.2-2.8-0.8-3-2.3C4,5.7,5,4.3,6.5,4.1C8,3.9,9.3,5,9.5,6.4C9.7,7.9,8.7,9.3,7.2,9.5z"/>
</g>
<rect class="st2" width="20" height="20"/>
</svg>
