<?xml version="1.0" encoding="utf-8"?>
<!-- Generator: Adobe Illustrator 28.0.0, SVG Export Plug-In . SVG Version: 6.00 Build 0)  -->
<svg version="1.1" id="Layer_1" xmlns="http://www.w3.org/2000/svg" xmlns:xlink="http://www.w3.org/1999/xlink" x="0px" y="0px"
	 viewBox="0 0 20 20" style="enable-background:new 0 0 20 20;" xml:space="preserve">
<style type="text/css">
	.st0{fill:#424242;}
	.st1{fill:none;}
</style>
<g>
	<path class="st0" d="M16.5,9.6C16.2,9.6,16,9.8,16,10v3.8H7.7c-0.1,0-0.2,0.1-0.3,0.1l-3.6,3.6v-3.2c0-0.2-0.2-0.4-0.4-0.4H0.9v-12
		h14.4c0.2,0,0.4-0.2,0.4-0.4S15.5,1,15.3,1H0.4C0.2,1,0,1.2,0,1.4v12.8c0,0.2,0.2,0.4,0.4,0.4h2.5v3.9c0,0.2,0.1,0.3,0.3,0.4
		c0.1,0,0.1,0,0.2,0c0.1,0,0.2,0,0.3-0.1l4.2-4.2h8.6c0.2,0,0.4-0.2,0.4-0.4V10C16.9,9.7,16.7,9.5,16.5,9.6L16.5,9.6z"/>
	<path class="st0" d="M12.5,5.6c0-0.2-0.2-0.4-0.4-0.4h-9c-0.2,0-0.4,0.2-0.4,0.4c0,0.2,0.2,0.4,0.4,0.4h9
		C12.3,6.1,12.5,5.9,12.5,5.6z"/>
	<path class="st0" d="M10.1,8.2c0-0.2-0.2-0.4-0.4-0.4H3.1c-0.2,0-0.4,0.2-0.4,0.4c0,0.2,0.2,0.4,0.4,0.4h6.5
		C9.9,8.6,10.1,8.4,10.1,8.2z"/>
	<path class="st0" d="M3.1,10.3c-0.2,0-0.4,0.2-0.4,0.4s0.2,0.4,0.4,0.4h6.1c0.2,0,0.4-0.2,0.4-0.4s-0.2-0.4-0.4-0.4H3.1z"/>
	<path class="st0" d="M19.9,3.5l-1.7-1.7c-0.2-0.2-0.5-0.2-0.6,0l-6.8,6.8c-0.1,0.1-0.1,0.2-0.1,0.3l-0.1,1.8c0,0.1,0,0.2,0.1,0.3
		c0.1,0.1,0.2,0.1,0.3,0.1h0l1.8-0.1c0.1,0,0.2-0.1,0.3-0.1l6.8-6.8C20,4.1,20,4,20,3.8C20,3.7,20,3.6,19.9,3.5L19.9,3.5z
		 M12.6,10.2l-1.1,0.1l0.1-1.2l6.3-6.3l1.1,1.1L12.6,10.2L12.6,10.2z"/>
</g>
<rect class="st1" width="20" height="20"/>
</svg>
