<?xml version="1.0" encoding="utf-8"?>
<!-- Generator: Adobe Illustrator 28.0.0, SVG Export Plug-In . SVG Version: 6.00 Build 0)  -->
<svg version="1.1" id="Layer_1" xmlns="http://www.w3.org/2000/svg" xmlns:xlink="http://www.w3.org/1999/xlink" x="0px" y="0px"
	 viewBox="0 0 20 20" style="enable-background:new 0 0 20 20;" xml:space="preserve">
<style type="text/css">
	.st0{fill:#3A3336;}
</style>
<g>
	<path class="st0" d="M15.8,19.5H4.3C2.5,19.5,1,18,1,16.2V4.7c0-1.8,1.5-3.2,3.2-3.2h11.5c1.8,0,3.2,1.5,3.2,3.2v11.5
		C19,18,17.6,19.5,15.8,19.5L15.8,19.5z M4.3,2.6c-1.1,0-2.1,0.9-2.1,2.1v11.5c0,1.1,0.9,2.1,2.1,2.1h11.5c1.1,0,2.1-0.9,2.1-2.1
		V4.7c0-1.1-0.9-2.1-2.1-2.1H4.3z"/>
	<path class="st0" d="M18.2,6.4H1.9c-0.3,0-0.6-0.3-0.6-0.6s0.3-0.6,0.6-0.6h16.4c0.3,0,0.6,0.3,0.6,0.6C18.8,6.2,18.5,6.4,18.2,6.4
		z"/>
	<g>
		<path class="st0" d="M4.4,3.5C4,3.5,3.8,3.3,3.8,2.9V1.1c0-0.3,0.3-0.6,0.6-0.6S5,0.8,5,1.1v1.8C5,3.3,4.7,3.5,4.4,3.5z"/>
		<path class="st0" d="M7.2,3.5c-0.3,0-0.6-0.3-0.6-0.6V1.1c0-0.3,0.3-0.6,0.6-0.6s0.6,0.3,0.6,0.6v1.8C7.8,3.3,7.5,3.5,7.2,3.5z"/>
		<path class="st0" d="M10,3.5c-0.3,0-0.6-0.3-0.6-0.6V1.1c0-0.3,0.3-0.6,0.6-0.6c0.3,0,0.6,0.3,0.6,0.6v1.8
			C10.6,3.3,10.4,3.5,10,3.5z"/>
		<path class="st0" d="M12.9,3.5c-0.3,0-0.6-0.3-0.6-0.6V1.1c0-0.3,0.3-0.6,0.6-0.6c0.3,0,0.6,0.3,0.6,0.6v1.8
			C13.4,3.3,13.2,3.5,12.9,3.5z"/>
		<path class="st0" d="M15.7,3.5c-0.3,0-0.6-0.3-0.6-0.6V1.1c0-0.3,0.3-0.6,0.6-0.6c0.3,0,0.6,0.3,0.6,0.6v1.8
			C16.3,3.3,16,3.5,15.7,3.5z"/>
	</g>
	<g>
		<g>
			<rect x="5.4" y="8.4" class="st0" width="1.6" height="1.6"/>
			<rect x="9.2" y="8.4" class="st0" width="1.6" height="1.6"/>
			<rect x="13" y="8.4" class="st0" width="1.6" height="1.6"/>
		</g>
		<g>
			<rect x="5.4" y="11.7" class="st0" width="1.6" height="1.6"/>
			<rect x="9.2" y="11.7" class="st0" width="1.6" height="1.6"/>
			<rect x="13" y="11.7" class="st0" width="1.6" height="1.6"/>
		</g>
		<g>
			<rect x="5.4" y="15" class="st0" width="1.6" height="1.6"/>
			<rect x="9.2" y="15" class="st0" width="1.6" height="1.6"/>
			<rect x="13" y="15" class="st0" width="1.6" height="1.6"/>
		</g>
	</g>
</g>
</svg>
