<?xml version="1.0" encoding="UTF-8"?>
<svg id="Layer_1" data-name="Layer 1" xmlns="http://www.w3.org/2000/svg" viewBox="0 0 20 20">
  <defs>
    <style>
      .cls-1 {
        fill: #010101;
      }

      .cls-1, .cls-2, .cls-3 {
        stroke-width: 0px;
      }

      .cls-2 {
        fill: none;
      }

      .cls-4 {
        opacity: .75;
      }

      .cls-3 {
        fill: #231f20;
      }
    </style>
  </defs>
  <rect class="cls-2" x="1.67" y="1.67" width="16.67" height="16.67"/>
  <g>
    <g class="cls-4">
      <path class="cls-1" d="m8.42,9.17h-2v.75h2v-.75h0Zm-3,0h-2v.75h2v-.75h0Zm-3,0h-.83v.75h.83v-.75h0Zm-.83,1.74h-.75v2h.75v-2h0Zm0,3h-.75v2h.75v-2h0Zm0,3h-.75v1.51h.75v-1.51h0Zm2.31,1.51H1.89v.75h2v-.75h0Zm3,0h-2v.75h2v-.75h0Zm2.27-.3h-.75v.3h-.52v.75h.52c.75-.75.75-1.05.75-1.05h0Zm0-3h-.75v2h.75v-2h0Zm0-3h-.75v2h.75v-2h0Zm0-2.2h-.75v1.2h.75v-1.2h0Z"/>
    </g>
    <rect class="cls-3" x=".83" y=".83" width="8.33" height="6.67" rx=".75" ry=".75"/>
    <rect class="cls-3" x="10.83" y="12.5" width="8.33" height="6.67" rx=".75" ry=".75"/>
    <rect class="cls-2" width="20" height="20"/>
    <g class="cls-4">
      <path class="cls-1" d="m18.42,1.58v8.5h-6.83V1.58h6.83m0-.75h-6.83c-.41,0-.75.34-.75.75v8.5c0,.41.34.75.75.75h6.83c.41,0,.75-.34.75-.75V1.58c0-.41-.34-.75-.75-.75h0Z"/>
    </g>
  </g>
</svg>