<?xml version="1.0" encoding="UTF-8"?>
<svg id="Layer_1" data-name="Layer 1" xmlns="http://www.w3.org/2000/svg" viewBox="0 0 20 20">
  <defs>
    <style>
      .cls-1 {
        fill: #213c4f;
      }

      .cls-1, .cls-2 {
        stroke-width: 0px;
      }

      .cls-2 {
        fill: none;
      }
    </style>
  </defs>
  <g>
    <path class="cls-1" d="m16.31,18.82H3.69c-.12,0-.23-.04-.32-.12-2.14-1.91-3.37-4.64-3.37-7.5C0,5.67,4.48,1.18,9.98,1.18s10.02,4.49,10.02,10.01c0,2.86-1.23,5.59-3.37,7.5-.09.08-.2.12-.32.12Zm-12.44-.95h12.26c1.86-1.72,2.92-4.14,2.92-6.67,0-5-4.07-9.06-9.06-9.06S.95,6.2.95,11.2c0,2.53,1.06,4.95,2.92,6.67Z"/>
    <path class="cls-1" d="m9.98,13.06c-1.01,0-1.84-.84-1.84-1.87s.82-1.87,1.84-1.87,1.87.84,1.87,1.87-.84,1.87-1.87,1.87Zm0-2.79c-.49,0-.89.41-.89.92s.4.92.89.92.92-.41.92-.92-.41-.92-.92-.92Z"/>
    <path class="cls-1" d="m9.98,4.28c-.26,0-.48-.21-.48-.48v-.24c0-.26.21-.48.48-.48s.48.21.48.48v.24c0,.26-.21.48-.48.48Z"/>
    <path class="cls-1" d="m3.38,15.49c-.17,0-.33-.09-.41-.24-.13-.23-.05-.52.18-.65l.21-.12c.23-.13.52-.05.65.18.13.23.05.52-.18.65l-.21.12c-.07.04-.16.06-.24.06Z"/>
    <path class="cls-1" d="m16.4,7.98c-.16,0-.33-.09-.41-.24-.13-.23-.05-.52.18-.65l.21-.12c.22-.13.52-.05.65.18.13.23.05.52-.18.65l-.21.12c-.07.04-.16.06-.24.06Z"/>
    <path class="cls-1" d="m16.62,15.49c-.08,0-.16-.02-.24-.06l-.21-.12c-.23-.13-.31-.42-.18-.65.13-.23.42-.31.65-.18l.21.12c.23.13.31.42.18.65-.09.15-.25.24-.41.24Z"/>
    <path class="cls-1" d="m3.59,7.98c-.08,0-.16-.02-.24-.06l-.21-.12c-.23-.13-.31-.42-.18-.65.13-.23.42-.31.65-.18l.21.12c.23.13.31.42.18.65-.09.15-.25.24-.41.24Z"/>
    <path class="cls-1" d="m10.71,10.49c-.08,0-.16-.02-.24-.06-.23-.13-.3-.42-.17-.65l2.54-4.36c.13-.23.43-.3.65-.17.23.13.3.42.17.65l-2.54,4.36c-.09.15-.25.24-.41.24Z"/>
    <path class="cls-1" d="m5.59,18.82s-.1,0-.15-.02c-.25-.08-.39-.35-.31-.6l.79-2.42c.06-.2.25-.33.45-.33h7.24c.21,0,.39.13.45.33l.79,2.42c.08.25-.06.52-.31.6-.25.08-.52-.06-.6-.31l-.68-2.09h-6.55l-.68,2.09c-.07.2-.25.33-.45.33Z"/>
  </g>
  <rect class="cls-2" width="20" height="20"/>
</svg>