<?xml version="1.0" encoding="UTF-8"?>
<svg id="Layer_1" data-name="Layer 1" xmlns="http://www.w3.org/2000/svg" xmlns:xlink="http://www.w3.org/1999/xlink" viewBox="0 0 20 20">
  <defs>
    <style>
      .cls-1 {
        fill: #262626;
      }

      .cls-1, .cls-2 {
        stroke-width: 0px;
      }

      .cls-2 {
        fill: none;
      }

      .cls-3 {
        clip-path: url(#clippath);
      }
    </style>
    <clipPath id="clippath">
      <rect class="cls-2" y="2.69" width="20" height="14.62"/>
    </clipPath>
  </defs>
  <g class="cls-3">
    <g id="Group_51" data-name="Group 51">
      <g id="Path_123" data-name="Path 123">
        <path class="cls-1" d="m18.08,17.55H1.92c-.57,0-1.1-.22-1.51-.62h-.01c-.41-.42-.64-.97-.64-1.55V4.62c0-1.19.97-2.16,2.16-2.16h16.16c1.19,0,2.16.97,2.16,2.16v10.77c0,.58-.24,1.15-.66,1.55-.4.39-.94.61-1.5.61Zm-9.8-7.08l-6.3,5.83h16.04l-6.32-5.84c-.13-.12-.2-.29-.2-.46,0-.15.05-.3.17-.42.23-.25.63-.27.88-.03l6.43,5.95s0-.07,0-.1V4.62c0-.5-.41-.91-.91-.91H1.92c-.5,0-.91.41-.91.92v10.77s0,.07,0,.1l6.43-5.95c.25-.23.65-.22.88.03.23.25.22.65-.03.88h-.02Z"/>
      </g>
      <g id="Path_124" data-name="Path 124">
        <path class="cls-1" d="m10,12.04c-.51,0-1.02-.18-1.43-.54L.43,3.97c-.13-.12-.2-.28-.2-.45,0-.17.07-.34.19-.46.4-.4.94-.61,1.5-.62h16.16c.57,0,1.1.22,1.5.61.12.12.19.28.19.46s-.08.33-.2.45l-8.12,7.52s0,0-.01,0c-.41.36-.92.54-1.43.54Zm1.02-1.01h0,0ZM1.98,3.7l7.43,6.87c.33.29.85.29,1.19,0l7.42-6.86H1.98Z"/>
      </g>
    </g>
  </g>
  <rect class="cls-2" width="20" height="20"/>
</svg>