<?xml version="1.0" encoding="UTF-8"?>
<svg id="Layer_1" data-name="Layer 1" xmlns="http://www.w3.org/2000/svg" viewBox="0 0 20 20">
  <defs>
    <style>
      .cls-1 {
        fill: #474848;
        stroke-width: 0px;
      }
    </style>
  </defs>
  <path class="cls-1" d="m8.6,19.78c-.14,0-.27-.08-.34-.21l-1.29-2.35-1.16.81c-.12.09-.28.09-.41.01-.13-.08-.21-.23-.21-.39v-6.32c0-.16.07-.3.2-.38.12-.08.27-.08.4,0l5.2,3.16c.13.08.21.23.21.39s-.08.31-.21.39l-1.33.83,1.28,2.34c.06.11.07.24.04.36-.03.12-.11.22-.21.27l-2,1.05c-.06.03-.11.04-.17.04Zm-1.5-3.62s.06,0,.09.01c.1.03.19.1.25.2l1.31,2.39,1.27-.67-1.27-2.31c-.06-.1-.07-.23-.05-.34.03-.12.1-.22.19-.28l1.07-.66-3.97-2.41v4.76l.89-.62c.06-.05.14-.07.21-.07Z"/>
  <path class="cls-1" d="m8.8,3.33H.4c-.22,0-.4-.2-.4-.44V.67C0,.42.18.22.4.22h8.4c.22,0,.4.2.4.44v2.22c0,.25-.18.44-.4.44ZM.8,2.44h7.6v-1.33H.8v1.33Z"/>
  <path class="cls-1" d="m19.6,7.78H.4c-.22,0-.4-.2-.4-.44v-2.67c0-.25.18-.44.4-.44h19.2c.22,0,.4.2.4.44v2.67c0,.25-.18.44-.4.44ZM.8,6.89h18.4v-1.78H.8v1.78Z"/>
  <path class="cls-1" d="m11.2,11.78h-1.2c-.22,0-.4-.2-.4-.44s.18-.44.4-.44h.8v-1.33H.8v1.33h3.2c.22,0,.4.2.4.44s-.18.44-.4.44H.4c-.22,0-.4-.2-.4-.44v-2.22c0-.25.18-.44.4-.44h10.8c.22,0,.4.2.4.44v2.22c0,.25-.18.44-.4.44Z"/>
  <path class="cls-1" d="m19.6,3.33h-8.4c-.22,0-.4-.2-.4-.44V.67c0-.25.18-.44.4-.44h8.4c.22,0,.4.2.4.44v2.22c0,.25-.18.44-.4.44Zm-8-.89h7.6v-1.33h-7.6v1.33Z"/>
  <path class="cls-1" d="m19.6,9.56h-6.4c-.22,0-.4-.2-.4-.44s.18-.44.4-.44h6.4c.22,0,.4.2.4.44s-.18.44-.4.44Z"/>
  <path class="cls-1" d="m19.6,11.78h-6.4c-.22,0-.4-.2-.4-.44s.18-.44.4-.44h6.4c.22,0,.4.2.4.44s-.18.44-.4.44Z"/>
</svg>