<?xml version="1.0" encoding="UTF-8"?>
<svg id="Layer_1" data-name="Layer 1" xmlns="http://www.w3.org/2000/svg" viewBox="0 0 20 20">
  <defs>
    <style>
      .cls-1 {
        stroke-width: 0px;
      }
    </style>
  </defs>
  <path class="cls-1" d="m1.5,16.13h.5v1.57c0,.36.3.6.61.6.14,0,.28-.05.4-.16l2.2-2.02h8.29c.83,0,1.5-.67,1.5-1.5v-1.66l-.6-.55h-.4v2.21c0,.28-.22.5-.5.5H4.82l-.29.26-1.53,1.41v-1.67h-1.5c-.28,0-.5-.22-.5-.5v-7c0-.28.22-.5.5-.5h2.5v-1H1.5c-.83,0-1.5.67-1.5,1.5v7c0,.83.67,1.5,1.5,1.5Z"/>
  <path class="cls-1" d="m18.5,1.41H6.5c-.83,0-1.5.67-1.5,1.5v7c0,.83.67,1.5,1.5,1.5h8.29l.21.19,1.99,1.83c.12.11.26.16.4.16.31,0,.61-.24.61-.6v-1.57h.5c.83,0,1.5-.67,1.5-1.5V2.91c0-.83-.67-1.5-1.5-1.5Zm-5.16,8.52h-1.97v-1.74h1.97v1.74Zm1.61-4.4c-.15.26-.46.57-.93.93-.33.26-.53.47-.62.62-.09.16-.13.36-.13.61h-1.84v-.18c0-.31.04-.57.11-.76.07-.2.18-.37.32-.54.14-.16.46-.45.95-.85.26-.21.39-.41.39-.59s-.05-.32-.16-.41c-.11-.1-.26-.15-.48-.15-.23,0-.42.08-.57.23-.15.15-.25.42-.29.79l-1.88-.23c.07-.69.32-1.25.75-1.67.44-.42,1.11-.63,2.01-.63.7,0,1.27.15,1.71.44.59.4.88.93.88,1.59,0,.27-.08.54-.23.79Z"/>
</svg>