<?xml version="1.0" encoding="utf-8"?>
<!-- Generator: Adobe Illustrator 28.0.0, SVG Export Plug-In . SVG Version: 6.00 Build 0)  -->
<svg version="1.1" id="Layer_1" xmlns="http://www.w3.org/2000/svg" xmlns:xlink="http://www.w3.org/1999/xlink" x="0px" y="0px"
	 viewBox="0 0 20 20" style="enable-background:new 0 0 20 20;" xml:space="preserve">
<style type="text/css">
	.st0{fill:#515151;}
	.st1{fill:none;}
</style>
<g>
	<path class="st0" d="M16.8,13.7H3.1c-0.2,0-0.4-0.2-0.4-0.4V2.6c0-0.2,0.2-0.4,0.4-0.4h13.7c0.2,0,0.4,0.2,0.4,0.4v10.7
		C17.3,13.5,17.1,13.7,16.8,13.7z M3.6,12.8h12.9V3H3.6C3.6,3,3.6,12.8,3.6,12.8z"/>
	<path class="st0" d="M15.6,12c-0.1,0-0.2,0-0.3-0.1l-3.1-3.1l-2.7,2.7c-0.2,0.2-0.4,0.2-0.6,0c-0.2-0.2-0.2-0.4,0-0.6l3-3
		c0.2-0.2,0.4-0.2,0.6,0l3.4,3.4c0.2,0.2,0.2,0.4,0,0.6C15.8,11.9,15.7,12,15.6,12z"/>
	<path class="st0" d="M5.3,12c-0.1,0-0.2,0-0.3-0.1c-0.2-0.2-0.2-0.4,0-0.6l3.4-3.4c0.2-0.2,0.4-0.2,0.6,0l1.7,1.7
		c0.2,0.2,0.2,0.4,0,0.6s-0.4,0.2-0.6,0L8.7,8.7l-3.1,3.1C5.5,12,5.4,12,5.3,12L5.3,12z"/>
	<path class="st0" d="M6.6,7.7C5.6,7.7,4.8,6.9,4.8,6s0.8-1.7,1.7-1.7C7.5,4.3,8.3,5,8.3,6S7.5,7.7,6.6,7.7z M6.6,5.1
		C6.1,5.1,5.7,5.5,5.7,6c0,0.5,0.4,0.9,0.9,0.9C7,6.8,7.4,6.5,7.4,6C7.4,5.5,7,5.1,6.6,5.1z"/>
	<path class="st0" d="M18.3,17.1C18.3,17.1,18.3,17.1,18.3,17.1L4.6,15.4c-0.1,0-0.2-0.1-0.3-0.2c-0.1-0.1-0.1-0.2-0.1-0.3l0.1-0.6
		c0-0.2,0.2-0.4,0.5-0.4c0.2,0,0.4,0.2,0.4,0.5l0,0.2l12.8,1.5l1.2-9.8l-1-0.1c-0.2,0-0.4-0.2-0.4-0.5c0-0.2,0.2-0.4,0.5-0.4
		l1.5,0.2c0.1,0,0.2,0.1,0.3,0.2S20,5.9,20,6l-1.3,10.6C18.7,16.9,18.5,17.1,18.3,17.1z"/>
	<path class="st0" d="M1.6,17.9c-0.2,0-0.4-0.2-0.4-0.4L0,6.8c0-0.2,0.1-0.4,0.4-0.5l1.5-0.2c0.2,0,0.4,0.1,0.5,0.4S2.2,7,2,7
		L0.9,7.2L2,17l5.3-0.6c0.2,0,0.4,0.1,0.5,0.4c0,0.2-0.1,0.4-0.4,0.5L1.6,17.9C1.7,17.9,1.7,17.9,1.6,17.9L1.6,17.9z"/>
</g>
<rect x="0" class="st1" width="20" height="20"/>
</svg>
