<?xml version="1.0" encoding="UTF-8"?>
<svg id="Layer_1" data-name="Layer 1" xmlns="http://www.w3.org/2000/svg" viewBox="0 0 20 20">
  <defs>
    <style>
      .cls-1 {
        fill: #474848;
      }

      .cls-1, .cls-2 {
        stroke-width: 0px;
      }

      .cls-2 {
        fill: #231f20;
      }
    </style>
  </defs>
  <path class="cls-1" d="m10,1c4.96,0,9,4.04,9,9s-4.04,9-9,9S1,14.96,1,10,5.04,1,10,1m0-1C4.48,0,0,4.48,0,10s4.48,10,10,10,10-4.48,10-10S15.52,0,10,0h0Z"/>
  <path class="cls-2" d="m11.17,12.09h-2.78v-.28c0-.47.05-.86.16-1.15s.27-.57.48-.81c.21-.24.69-.67,1.43-1.29.4-.32.59-.62.59-.89s-.08-.48-.24-.63c-.16-.15-.4-.22-.72-.22-.35,0-.63.11-.86.34-.23.23-.37.63-.44,1.2l-2.84-.35c.1-1.04.48-1.89,1.14-2.52.66-.64,1.68-.96,3.04-.96,1.06,0,1.92.22,2.58.67.89.6,1.33,1.4,1.33,2.4,0,.42-.12.82-.34,1.2s-.7.86-1.41,1.41c-.49.39-.8.7-.93.94-.13.24-.19.55-.19.93Zm-2.88.74h2.98v2.63h-2.98v-2.63Z"/>
</svg>