<?xml version="1.0" encoding="UTF-8"?>
<svg id="Layer_1" data-name="Layer 1" xmlns="http://www.w3.org/2000/svg" viewBox="0 0 32.05 24">
  <defs>
    <style>
      .cls-1 {
        fill: none;
      }

      .cls-1, .cls-2 {
        stroke-width: 0px;
      }

      .cls-2 {
        fill: #333;
      }
    </style>
  </defs>
  <rect class="cls-1" x=".03" width="32" height="24"/>
  <g>
    <path class="cls-2" d="m4.77,1.76h22.51c1.02,0,1.74.73,1.74,1.74h0c0,1.02-.73,1.74-1.74,1.74H4.77c-1.02.15-1.74-.73-1.74-1.74h0c0-1.02.73-1.74,1.74-1.74Z"/>
    <path class="cls-2" d="m4.77,10.33h22.51c1.02,0,1.74.73,1.74,1.74h0c0,1.02-.73,1.74-1.74,1.74H4.77c-1.02,0-1.74-.73-1.74-1.74h0c0-1.02.73-1.74,1.74-1.74Z"/>
    <path class="cls-2" d="m4.77,18.75h22.51c1.02,0,1.74.73,1.74,1.74h0c0,1.02-.73,1.74-1.74,1.74H4.77c-1.02,0-1.74-.73-1.74-1.74h0c0-.87.73-1.74,1.74-1.74Z"/>
  </g>
</svg>