<?xml version="1.0" encoding="utf-8"?>
<!-- Generator: Adobe Illustrator 28.0.0, SVG Export Plug-In . SVG Version: 6.00 Build 0)  -->
<svg version="1.1" id="Layer_1" xmlns="http://www.w3.org/2000/svg" xmlns:xlink="http://www.w3.org/1999/xlink" x="0px" y="0px"
	 viewBox="0 0 20 20" style="enable-background:new 0 0 20 20;" xml:space="preserve">
<style type="text/css">
	.st0{fill:#333333;}
	.st1{fill:none;}
</style>
<g>
	<path class="st0" d="M2.2,2.9h15.5c0.7,0,1.2,0.5,1.2,1.2l0,0c0,0.7-0.5,1.2-1.2,1.2H2.2C1.5,5.4,1,4.8,1,4.1l0,0
		C1,3.4,1.5,2.9,2.2,2.9z"/>
	<path class="st0" d="M2.2,8.8h15.5c0.7,0,1.2,0.5,1.2,1.2l0,0c0,0.7-0.5,1.2-1.2,1.2H2.2C1.5,11.2,1,10.7,1,10l0,0
		C1,9.3,1.5,8.8,2.2,8.8z"/>
	<path class="st0" d="M2.2,14.6h15.5c0.7,0,1.2,0.5,1.2,1.2l0,0c0,0.7-0.5,1.2-1.2,1.2H2.2c-0.7,0-1.2-0.5-1.2-1.2l0,0
		C1,15.2,1.5,14.6,2.2,14.6z"/>
</g>
<rect class="st1" width="20" height="20"/>
</svg>
