<?xml version="1.0" encoding="utf-8"?>
<!-- Generator: Adobe Illustrator 28.0.0, SVG Export Plug-In . SVG Version: 6.00 Build 0)  -->
<svg version="1.1" id="Layer_1" xmlns="http://www.w3.org/2000/svg" xmlns:xlink="http://www.w3.org/1999/xlink" x="0px" y="0px"
	 viewBox="0 0 20 20" style="enable-background:new 0 0 20 20;" xml:space="preserve">
<style type="text/css">
	.st0{fill:#333333;}
	.st1{fill:none;}
</style>
<path class="st0" d="M15,5.8h-3.1c-1.1,0-1.9-0.9-1.9-1.9V0.8c0-0.2,0.1-0.3,0.2-0.4c0.1-0.1,0.3,0,0.4,0.1l4.6,4.6
	c0.1,0.1,0.1,0.3,0.1,0.4S15.1,5.8,15,5.8L15,5.8z M10.8,1.7v2.1c0,0.6,0.5,1.1,1.1,1.1h2.1C14.1,5,10.8,1.7,10.8,1.7z"/>
<g>
	<g>
		<path class="st0" d="M7.7,15H3.8c-0.2,0-0.4-0.2-0.4-0.4s0.2-0.4,0.4-0.4h3.8c0.2,0,0.4,0.2,0.4,0.4S7.9,15,7.7,15z"/>
		<path class="st0" d="M7.7,12.7H3.8c-0.2,0-0.4-0.2-0.4-0.4c0-0.2,0.2-0.4,0.4-0.4h3.8c0.2,0,0.4,0.2,0.4,0.4
			C8.1,12.5,7.9,12.7,7.7,12.7z"/>
		<path class="st0" d="M11.5,10.4H3.8c-0.2,0-0.4-0.2-0.4-0.4c0-0.2,0.2-0.4,0.4-0.4h7.7c0.2,0,0.4,0.2,0.4,0.4
			C11.9,10.2,11.8,10.4,11.5,10.4z"/>
		<path class="st0" d="M11.5,8.1H3.8c-0.2,0-0.4-0.2-0.4-0.4c0-0.2,0.2-0.4,0.4-0.4h7.7c0.2,0,0.4,0.2,0.4,0.4
			C11.9,7.9,11.8,8.1,11.5,8.1z"/>
	</g>
	<g>
		<path class="st0" d="M13.4,16.6L13.4,16.6c-0.1,0-0.2,0-0.3-0.1L11,14.3c-0.1-0.1-0.1-0.4,0-0.5l4.9-4.9c0.1-0.1,0.4-0.1,0.5,0
			l2.2,2.2c0.1,0.1,0.1,0.2,0.1,0.3s0,0.2-0.1,0.3l-4.9,4.9C13.6,16.6,13.5,16.6,13.4,16.6L13.4,16.6z M11.8,14.1l1.6,1.6l4.3-4.3
			l-1.6-1.6C16.1,9.7,11.8,14.1,11.8,14.1z"/>
		<path class="st0" d="M10.9,17.3c-0.2,0-0.4-0.1-0.5-0.2c-0.2-0.2-0.3-0.5-0.2-0.8l0.7-2.4c0-0.1,0.1-0.2,0.3-0.3
			c0.1,0,0.3,0,0.4,0.1l2.2,2.2c0.1,0.1,0.1,0.2,0.1,0.4c0,0.1-0.1,0.2-0.3,0.3l-2.4,0.7C11.1,17.3,11,17.3,10.9,17.3L10.9,17.3z
			 M11.4,14.8l-0.5,1.7l1.7-0.5C12.7,16,11.4,14.8,11.4,14.8z"/>
		<path class="st0" d="M18.3,11.7c-0.1,0-0.2,0-0.3-0.1l-2.2-2.2c-0.1-0.1-0.1-0.4,0-0.5l1.1-1.1c0.4-0.4,1.2-0.4,1.6,0l1.1,1.1
			c0.4,0.4,0.4,1.2,0,1.6l-1.1,1.1C18.5,11.7,18.4,11.7,18.3,11.7L18.3,11.7z M16.7,9.2l1.6,1.6l0.8-0.8c0.1-0.1,0.1-0.4,0-0.5
			L18,8.3c-0.1-0.1-0.4-0.1-0.5,0C17.5,8.3,16.7,9.2,16.7,9.2z"/>
	</g>
	<path class="st0" d="M13.5,19.6H1.9c-1.1,0-1.9-0.9-1.9-1.9V2.3c0-1.1,0.9-1.9,1.9-1.9h8.5c0.2,0,0.4,0.2,0.4,0.4v3.1
		c0,0.6,0.5,1.1,1.1,1.1H15c0.2,0,0.4,0.2,0.4,0.4v4.9c0,0.1,0,0.2-0.1,0.3l-3.7,3.7l-0.6,2.3l2.3-0.6l1.5-1.5
		c0.1-0.1,0.3-0.1,0.4-0.1c0.1,0.1,0.2,0.2,0.2,0.4v3.1C15.4,18.7,14.5,19.6,13.5,19.6L13.5,19.6z M1.9,1.2c-0.6,0-1.1,0.5-1.1,1.1
		v15.4c0,0.6,0.5,1.1,1.1,1.1h11.5c0.6,0,1.1-0.5,1.1-1.1v-2.1l-0.9,0.9c0,0-0.1,0.1-0.2,0.1l-2.4,0.7l0,0c-0.3,0.1-0.6,0-0.8-0.2
		c-0.2-0.2-0.3-0.5-0.2-0.8l0.7-2.4c0-0.1,0-0.1,0.1-0.2l3.7-3.7V5.8h-2.7c-1.1,0-1.9-0.9-1.9-1.9V1.2H1.9z M11,16.9L11,16.9
		L11,16.9z"/>
</g>
<rect class="st1" width="20" height="20"/>
</svg>
