<?xml version="1.0" encoding="UTF-8"?>
<svg id="Layer_1" data-name="Layer 1" xmlns="http://www.w3.org/2000/svg" viewBox="0 0 20 20">
  <defs>
    <style>
      .cls-1 {
        fill: none;
      }

      .cls-1, .cls-2 {
        stroke-width: 0px;
      }

      .cls-2 {
        fill: #464646;
      }
    </style>
  </defs>
  <g>
    <path class="cls-2" d="m16.01,14.43c-.07,0-.14-.02-.2-.05l-1.01-.54c-.2-.11-.28-.36-.17-.56.11-.2.36-.28.56-.17l.81.43,3.05-1.76L15,1.92l-2.91,6.91c-.09.21-.33.31-.55.22-.21-.09-.31-.33-.22-.55L14.62.67c.07-.15.22-.25.38-.25h0c.17,0,.32.1.38.26l4.58,11.12c.08.19,0,.42-.18.52l-3.57,2.06c-.06.04-.14.06-.21.06Z"/>
    <path class="cls-2" d="m16.01,14.43c-.22,0-.4-.17-.41-.38L14.59.9c-.02-.23.15-.43.38-.45.23-.02.43.15.45.38l1.01,13.14c.02.23-.15.43-.38.45-.01,0-.02,0-.03,0Z"/>
    <path class="cls-2" d="m3.96,7.92c-2.22,0-3.96-1.04-3.96-2.36s1.74-2.36,3.96-2.36,3.96,1.04,3.96,2.36-1.74,2.36-3.96,2.36Zm0-3.9c-1.84,0-3.12.81-3.12,1.53s1.28,1.53,3.12,1.53,3.12-.81,3.12-1.53-1.28-1.53-3.12-1.53Z"/>
    <path class="cls-2" d="m3.34,13.32s-.03,0-.04,0c-1.94-.19-3.3-1.15-3.3-2.33v-5.43c0-.23.19-.42.42-.42s.42.19.42.42v5.43c0,.7,1.12,1.37,2.55,1.5.23.02.4.23.37.45-.02.22-.2.38-.41.38Z"/>
    <path class="cls-2" d="m7.5,8.59c-.23,0-.42-.19-.42-.42v-2.62c0-.23.19-.42.42-.42s.42.19.42.42v2.62c0,.23-.19.42-.42.42Z"/>
    <path class="cls-2" d="m9.17,19.58c-.07,0-.14-.02-.21-.06l-4.58-2.63c-.13-.07-.21-.21-.21-.36v-5.27c0-.15.08-.29.21-.36l4.58-2.6c.13-.07.28-.07.41,0l4.58,2.6c.13.07.21.21.21.36v5.27c0,.15-.08.29-.21.36l-4.58,2.63c-.06.04-.14.06-.21.06Zm-4.16-3.29l4.16,2.39,4.16-2.39v-4.79l-4.16-2.36-4.16,2.36v4.79Z"/>
    <path class="cls-2" d="m9.17,14.33c-.14,0-.28-.07-.36-.21-.12-.2-.05-.45.15-.57l4.59-2.65c.2-.12.45-.05.57.15.12.2.05.45-.15.57l-4.59,2.65c-.07.04-.14.06-.21.06Z"/>
    <path class="cls-2" d="m9.17,14.34c-.07,0-.14-.02-.21-.06l-4.59-2.65c-.2-.12-.27-.37-.15-.57.12-.2.37-.27.57-.15l4.59,2.65c.2.12.27.37.15.57-.08.13-.22.21-.36.21Z"/>
    <path class="cls-2" d="m9.17,19.58c-.23,0-.42-.19-.42-.42v-5.26c0-.23.19-.42.42-.42s.42.19.42.42v5.26c0,.23-.19.42-.42.42Z"/>
  </g>
  <rect class="cls-1" width="20" height="20"/>
</svg>