<?xml version="1.0" encoding="utf-8"?>
<!-- Generator: Adobe Illustrator 28.0.0, SVG Export Plug-In . SVG Version: 6.00 Build 0)  -->
<svg version="1.1" id="Layer_1" xmlns="http://www.w3.org/2000/svg" xmlns:xlink="http://www.w3.org/1999/xlink" x="0px" y="0px"
	 viewBox="0 0 20 20" style="enable-background:new 0 0 20 20;" xml:space="preserve">
<style type="text/css">
	.st0{fill:#37474C;}
	.st1{fill:none;}
</style>
<g>
	<path class="st0" d="M16.2,20H3.9c-0.9,0-1.5-0.7-1.5-1.5v-7.7h0.8v7.7c0,0.4,0.3,0.8,0.8,0.8h12.3c0.4,0,0.8-0.3,0.8-0.8v-7.7h0.8
		v7.7C17.7,19.3,17,20,16.2,20L16.2,20z"/>
	<path class="st0" d="M18.1,11.9c-0.1,0-0.2,0-0.3-0.1L10,4l-7.8,7.8C2,12,1.8,12,1.7,11.8l-1.5-1.5C0,10.1,0,9.9,0.1,9.7l9.6-9.6
		c0.2-0.2,0.4-0.2,0.5,0l3.6,3.6V1.9c0-0.2,0.2-0.4,0.4-0.4h2.3c0.2,0,0.4,0.2,0.4,0.4v4.8l3,3c0.2,0.2,0.2,0.4,0,0.5l-1.5,1.5
		C18.3,11.9,18.2,11.9,18.1,11.9L18.1,11.9z M10,3.1c0.1,0,0.2,0,0.3,0.1l7.8,7.8l1-1l-2.8-2.8c-0.1-0.1-0.1-0.2-0.1-0.3V2.3h-1.5
		v2.3c0,0.2-0.1,0.3-0.2,0.4C14.2,5,14.1,5,14,4.9l-4-4L0.9,10l1,1l7.8-7.8C9.8,3.1,9.9,3.1,10,3.1z"/>
	<path class="st0" d="M10.4,15.8H9.6c-0.8,0-1.5-0.7-1.5-1.5c0-0.2,0.2-0.4,0.4-0.4c0.2,0,0.4,0.2,0.4,0.4c0,0.4,0.3,0.8,0.8,0.8
		h0.8c0.4,0,0.8-0.3,0.8-0.8s-0.3-0.8-0.8-0.8H9.6c-0.8,0-1.5-0.7-1.5-1.5s0.7-1.5,1.5-1.5h0.8c0.9,0,1.5,0.7,1.5,1.5
		c0,0.2-0.2,0.4-0.4,0.4c-0.2,0-0.4-0.2-0.4-0.4c0-0.4-0.3-0.8-0.8-0.8H9.6c-0.4,0-0.8,0.3-0.8,0.8s0.3,0.8,0.8,0.8h0.8
		c0.8,0,1.5,0.7,1.5,1.5S11.2,15.8,10.4,15.8z"/>
	<path class="st0" d="M10,11.1c-0.2,0-0.4-0.2-0.4-0.4V9.6c0-0.2,0.2-0.4,0.4-0.4c0.2,0,0.4,0.2,0.4,0.4v1.2
		C10.4,11,10.2,11.1,10,11.1z"/>
	<path class="st0" d="M10,16.9c-0.2,0-0.4-0.2-0.4-0.4v-1.1c0-0.2,0.2-0.4,0.4-0.4c0.2,0,0.4,0.2,0.4,0.4v1.1
		C10.4,16.8,10.2,16.9,10,16.9z"/>
</g>
<rect class="st1" width="20" height="20"/>
</svg>
