<?xml version="1.0" encoding="UTF-8"?>
<svg id="Layer_1" data-name="Layer 1" xmlns="http://www.w3.org/2000/svg" viewBox="0 0 20 20">
  <defs>
    <style>
      .cls-1 {
        fill: #212121;
      }

      .cls-1, .cls-2 {
        stroke-width: 0px;
      }

      .cls-2 {
        fill: none;
        fill-rule: evenodd;
      }
    </style>
  </defs>
  <polygon class="cls-2" points="0 0 20 0 20 20 0 20 0 0 0 0"/>
  <g>
    <path class="cls-1" d="m17.01,20H2.99c-.39,0-.76-.15-1.04-.41-.31-.29-.49-.7-.49-1.12V1.54c0-.43.18-.84.49-1.13.28-.26.65-.41,1.04-.41h10.89c.11,0,.21.04.29.12l4.26,4.37c.07.08.11.18.11.28v13.7c0,.85-.69,1.53-1.53,1.53h0ZM2.99.81h0c-.18,0-.36.07-.49.19-.15.14-.24.33-.24.54v16.93c0,.2.09.4.23.53.14.13.31.2.5.2h14.02c.4,0,.73-.33.73-.73V4.93L13.71.81H2.99Z"/>
    <path class="cls-1" d="m15.28,17.91H4.72c-.31,0-.61-.13-.82-.36-.19-.2-.29-.47-.29-.75v-6.6c0-.61.5-1.11,1.11-1.11h10.56c.61,0,1.11.5,1.11,1.11v6.6c0,.28-.11.55-.3.75-.2.22-.5.35-.81.35h0ZM4.72,9.9h0c-.17,0-.3.14-.3.3v6.6c0,.08.03.15.08.2.06.07.14.1.22.1h10.56c.08,0,.16-.04.22-.1.06-.06.08-.13.08-.21v-6.6c0-.17-.14-.3-.3-.3H4.72Z"/>
    <path class="cls-1" d="m11.52,7.15h-6.77c-.62,0-1.13-.5-1.13-1.11V.4c0-.22.18-.4.4-.4h8.21c.22,0,.4.18.4.4v5.64c0,.31-.13.61-.37.82-.2.19-.47.29-.76.29h0ZM4.43.81h0v5.24c0,.17.14.3.32.3h6.77c.08,0,.16-.03.22-.08.07-.06.1-.14.1-.22V.81h-7.41Z"/>
    <path class="cls-1" d="m13.4,11.99h-6.8c-.22,0-.4-.18-.4-.4s.18-.4.4-.4h6.8c.22,0,.4.18.4.4s-.18.4-.4.4h0Z"/>
    <path class="cls-1" d="m13.4,13.91h-6.8c-.22,0-.4-.18-.4-.4s.18-.4.4-.4h6.8c.22,0,.4.18.4.4s-.18.4-.4.4h0Z"/>
    <path class="cls-1" d="m13.4,15.82h-6.8c-.22,0-.4-.18-.4-.4s.18-.4.4-.4h6.8c.22,0,.4.18.4.4s-.18.4-.4.4h0Z"/>
    <path class="cls-1" d="m6.22,5.24c-.22,0-.4-.18-.4-.4v-2.52c0-.22.18-.4.4-.4s.4.18.4.4v2.52c0,.22-.18.4-.4.4h0Z"/>
  </g>
</svg>