<?xml version="1.0" encoding="UTF-8"?>
<svg id="Layer_1" data-name="Layer 1" xmlns="http://www.w3.org/2000/svg" viewBox="0 0 20 20">
  <defs>
    <style>
      .cls-1 {
        fill: #333;
        stroke-width: 0px;
      }
    </style>
  </defs>
  <path class="cls-1" d="m3.36,4.58h0c-.46,0-.84-.37-.84-.84V.84c0-.46.37-.84.84-.84h0c.46,0,.84.37.84.84v2.91c0,.46-.37.84-.84.84Zm2.47,4.58c0,.22-.07.44-.25.58-.18.18-.36.25-.58.25H1.65c-.22,0-.44-.07-.58-.25-.18-.18-.25-.36-.25-.58v-3.35c0-.22.07-.44.25-.58.18-.18.36-.25.58-.25h3.35c.22,0,.44.07.58.25.15.18.25.36.25.58v3.35Zm4.18,2.07h0c-.46,0-.84-.37-.84-.84V.84c0-.46.37-.84.84-.84h0c.46,0,.84.37.84.84v9.56c0,.46-.37.84-.84.84Zm6.65-8.33h0c-.46,0-.84-.37-.84-.84V.84c0-.46.37-.84.84-.84h0c.46,0,.84.37.84.84v1.24c0,.46-.37.84-.84.84ZM3.36,20h0c-.46,0-.84-.37-.84-.84v-7.93c0-.46.37-.84.84-.84h0c.46,0,.84.37.84.84v7.93c0,.46-.37.84-.84.84Zm15.82-12.51c0,.22-.07.44-.25.58-.18.18-.36.25-.58.25h-3.35c-.22,0-.44-.07-.58-.25-.15-.18-.25-.36-.25-.58v-3.31c0-.22.07-.44.25-.58.18-.18.36-.25.58-.25h3.35c.22,0,.44.07.58.25.18.18.25.36.25.58v3.31Zm-6.65,8.33c0,.22-.07.44-.25.58-.18.18-.36.25-.58.25h-3.35c-.22,0-.44-.07-.58-.25-.18-.18-.25-.36-.25-.58v-3.35c0-.22.07-.44.25-.58.18-.18.36-.25.58-.25h3.35c.22,0,.44.07.58.25.15.18.25.36.25.58v3.35Zm-2.51,4.18h0c-.46,0-.84-.37-.84-.84v-1.24c0-.46.37-.84.84-.84h0c.46,0,.84.37.84.84v1.24c0,.46-.37.84-.84.84Zm6.65,0h0c-.46,0-.84-.37-.84-.84v-9.56c0-.46.37-.84.84-.84h0c.46,0,.84.37.84.84v9.56c0,.46-.37.84-.84.84Z"/>
</svg>