<?xml version="1.0" encoding="utf-8"?>
<!-- Generator: Adobe Illustrator 28.0.0, SVG Export Plug-In . SVG Version: 6.00 Build 0)  -->
<svg version="1.1" id="Layer_1" xmlns="http://www.w3.org/2000/svg" xmlns:xlink="http://www.w3.org/1999/xlink" x="0px" y="0px"
	 viewBox="0 0 20 20" style="enable-background:new 0 0 20 20;" xml:space="preserve">
<style type="text/css">
	.st0{fill:#231F20;}
	.st1{fill:none;}
</style>
<path class="st0" d="M8.5,17H2v-4.6C2,10.5,2.2,9,2.5,8s0.9-2,1.8-2.9s2-1.5,3.4-2L9,5.7c-1.3,0.4-2.2,1-2.8,1.8
	c-0.6,0.8-0.9,1.8-0.9,3.1h3.1V17L8.5,17z M17.5,17H11v-4.6c0-1.9,0.2-3.4,0.5-4.4c0.3-1.1,0.9-2,1.8-2.9c0.9-0.9,2-1.5,3.4-2
	L18,5.7c-1.3,0.4-2.2,1-2.8,1.8c-0.6,0.8-0.9,1.8-0.9,3.1h3.1L17.5,17L17.5,17z"/>
<rect class="st1" width="20" height="20"/>
</svg>
