<?xml version="1.0" encoding="utf-8"?>
<!-- Generator: Adobe Illustrator 28.0.0, SVG Export Plug-In . SVG Version: 6.00 Build 0)  -->
<svg version="1.1" id="Layer_1" xmlns="http://www.w3.org/2000/svg" xmlns:xlink="http://www.w3.org/1999/xlink" x="0px" y="0px"
	 viewBox="0 0 20 20" style="enable-background:new 0 0 20 20;" xml:space="preserve">
<style type="text/css">
	.st0{fill:#1A1A1A;}
	.st1{fill:none;}
</style>
<g>
	<polygon class="st0" points="9.8,10.3 9.8,10.5 9.8,10.5 10,10.5 10,10.5 10,10.3 10,10.3 9.8,10.3 	"/>
	<path class="st0" d="M15.9,7.8L15.9,7.8c0.5,0,1-0.2,1.4-0.6c0.4-0.4,0.6-0.9,0.6-1.4c0-0.5-0.2-1-0.6-1.4
		c-0.4-0.4-0.9-0.6-1.4-0.6l0,0c-0.5,0-1,0.2-1.4,0.6c-0.4,0.4-0.6,0.9-0.6,1.4c0,0.5,0.2,1,0.6,1.4C14.9,7.5,15.4,7.8,15.9,7.8z"/>
	<path class="st0" d="M19.7,10.8c-0.2-0.5-0.5-0.9-0.9-1.3c-0.8-0.8-1.8-1.2-2.8-1.2c0,0-0.1,0-0.1,0c-1.1,0-2.1,0.4-2.8,1.2
		c-0.3,0.3-0.5,0.6-0.7,1c0.1,0.1,0.2,0.1,0.3,0.2c0.1,0.1,0.2,0.1,0.3,0.2c0.2,0.1,0.3,0.3,0.5,0.4c0.4,0.4,0.8,1,1,1.5
		c0,0.1,0.1,0.1,0.1,0.2c0,0.1,0.1,0.2,0.1,0.4c0,0.1,0.1,0.2,0.1,0.4H19c0.5,0,1-0.4,1-1v-0.5C20,11.9,19.9,11.4,19.7,10.8
		L19.7,10.8z"/>
	<path class="st0" d="M4.1,7.8L4.1,7.8c0.5,0,1-0.2,1.4-0.6c0.4-0.4,0.6-0.9,0.6-1.4c0-0.5-0.2-1-0.6-1.4S4.6,3.7,4.1,3.7
		S3,3.9,2.6,4.3S2,5.2,2,5.7c0,0.5,0.2,1,0.6,1.4C3,7.5,3.5,7.8,4.1,7.8L4.1,7.8z"/>
	<path class="st0" d="M7,11c0.1-0.1,0.2-0.1,0.3-0.2c0.1-0.1,0.2-0.1,0.3-0.2c-0.2-0.4-0.4-0.7-0.7-1C6.2,8.8,5.2,8.4,4.1,8.4
		c-0.1,0-0.1,0-0.2,0c-1.1,0-2.1,0.4-2.8,1.2c-0.4,0.4-0.7,0.8-0.9,1.3c-0.2,0.5-0.3,1-0.3,1.6v0.5c0,0.5,0.4,1,1,1h4.2
		c0-0.1,0.1-0.3,0.1-0.4c0-0.1,0.1-0.3,0.1-0.4c0-0.1,0-0.1,0.1-0.2c0.2-0.6,0.6-1.1,1-1.5C6.7,11.2,6.9,11.1,7,11L7,11z"/>
	<path class="st0" d="M13.8,13.5c0-0.1-0.1-0.2-0.1-0.3c0,0,0-0.1,0-0.1c-0.2-0.4-0.5-0.8-0.8-1.2c-0.1-0.1-0.1-0.1-0.2-0.2
		c-0.1-0.1-0.2-0.2-0.3-0.3c-0.1-0.1-0.2-0.2-0.3-0.2c-0.6-0.3-1.2-0.5-1.9-0.5c-0.1,0-0.1,0-0.2,0c-0.7,0-1.4,0.2-1.9,0.5
		c-0.1,0.1-0.2,0.1-0.3,0.2c-0.1,0.1-0.2,0.2-0.3,0.3c-0.1,0.1-0.1,0.1-0.2,0.2c-0.3,0.3-0.6,0.7-0.8,1.2c0,0,0,0.1,0,0.1
		c0,0.1-0.1,0.2-0.1,0.3c0,0.1-0.1,0.2-0.1,0.4c-0.1,0.3-0.1,0.6-0.1,0.9v0.5c0,0.5,0.4,1,1,1h6.2c0.5,0,1-0.4,1-1v-0.5
		c0-0.3,0-0.6-0.1-0.9C13.9,13.8,13.9,13.6,13.8,13.5L13.8,13.5z"/>
	<path class="st0" d="M9.3,10c0.2,0.1,0.5,0.1,0.7,0.1c0.3,0,0.5-0.1,0.7-0.1C11.5,9.7,12,9,12,8.1c0-1.1-0.9-2-2-2S8,7,8,8.1
		C8,9,8.5,9.7,9.3,10L9.3,10z"/>
</g>
<rect class="st1" width="20" height="20"/>
</svg>
