<?xml version="1.0" encoding="UTF-8"?>
<svg id="Layer_1" data-name="Layer 1" xmlns="http://www.w3.org/2000/svg" viewBox="0 0 100 65">
  <defs>
    <style>
      .cls-1 {
        fill: #3b6b7a;
      }

      .cls-1, .cls-2 {
        stroke-width: 0px;
      }

      .cls-2 {
        fill: #223e49;
      }
    </style>
  </defs>
  <g>
    <path class="cls-1" d="m42.72,17.18c6.26,6.11,8.86,7.61,8.86,7.61.67.39.6.57-.16.41,0,0-8.57-1.82-11.99-5.24-1.51-1.51-3.18-5.64-3.18-5.64-.29-.72-.98-.87-1.54-.34l-20.32,19.29c-.56.53-.44.72.28.43,0,0,17.14-7.17,19.78-7.17,4.62,0,2.15,4.06,4.46,6.24,1.55,1.47,42.62-1.92,42.62-1.92.77-.06.94-.55.38-1.08L51.02.44c-.56-.53-1.48-.53-2.04,0l-10.54,10.01c-.56.53-.61,1.45-.11,2.04,0,0,2.21,2.59,4.38,4.71Z"/>
    <path class="cls-2" d="m38.42,35.27c-3.8-1.56-.5-4.26-3.63-5.83-2.24-1.12-23.6,7.58-23.6,7.58-.72.29-1.76.97-2.32,1.5l-7.36,6.99c-.56.53-.39.97.39.97h96.21c.77,0,.95-.44.39-.97l-11.23-10.66c-.56-.53-1.65-.93-2.42-.89,0,0-43.63,2.46-46.42,1.31Z"/>
  </g>
  <g>
    <path class="cls-2" d="m3.5,55.14v3.31H1.28v-8.94h4.88c1.43,0,2.56.26,3.4.78.84.52,1.26,1.21,1.26,2.06s-.41,1.56-1.23,2.05c-.82.49-1.97.73-3.45.73h-2.64Zm0-1.25h2.67c.79,0,1.39-.13,1.81-.39.41-.26.62-.64.62-1.13s-.21-.87-.63-1.16c-.42-.29-1-.44-1.74-.44h-2.73v3.12Z"/>
    <path class="cls-2" d="m20.52,53.75l2.94-4.23h2.46l-4.28,5.65v3.29h-2.23v-3.29l-4.29-5.65h2.46l2.94,4.23Z"/>
    <path class="cls-2" d="m35.58,55.02h-2.47v3.44h-2.22v-8.94h4.49c1.47,0,2.61.23,3.41.69.8.46,1.2,1.13,1.2,2.01,0,.6-.21,1.1-.62,1.5s-.99.71-1.72.93l2.87,3.72v.08h-2.38l-2.56-3.44Zm-2.47-1.25h2.28c.75,0,1.33-.13,1.75-.4.42-.26.63-.62.63-1.08s-.19-.85-.58-1.11c-.39-.26-.97-.4-1.74-.41h-2.34v3Z"/>
    <path class="cls-2" d="m52.83,56.37h-4.95l-1.03,2.08h-2.31l4.82-8.94h1.99l4.83,8.94h-2.31l-1.04-2.08Zm-4.32-1.25h3.7l-1.85-3.71-1.85,3.71Z"/>
    <path class="cls-2" d="m64.1,49.52l3.68,6.85,3.67-6.85h2.87v8.94h-2.21v-2.95l.22-3.94-3.77,6.89h-1.59l-3.76-6.88.22,3.93v2.95h-2.21v-8.94h2.88Z"/>
    <path class="cls-2" d="m82.88,58.45h-2.21v-8.94h2.21v8.94Z"/>
    <path class="cls-2" d="m89.2,58.45v-8.94h3.77c1.13,0,2.13.18,3,.53.87.35,1.55.85,2.03,1.5s.72,1.39.72,2.22v.45c0,.85-.24,1.59-.72,2.23-.48.64-1.17,1.14-2.06,1.49-.89.35-1.91.52-3.06.52h-3.67Zm2.22-7.68v6.44h1.45c1.16,0,2.06-.25,2.68-.76.62-.51.94-1.24.95-2.19v-.5c0-.97-.3-1.71-.9-2.22-.6-.51-1.48-.77-2.62-.77h-1.55Z"/>
  </g>
  <g>
    <path class="cls-1" d="m4.27,63.68c-.07.41-.29.73-.65.95-.36.22-.85.33-1.45.33-.66,0-1.18-.16-1.58-.49s-.59-.77-.59-1.32v-.37c0-.36.09-.68.28-.95s.45-.48.78-.63c.34-.15.73-.22,1.17-.22.59,0,1.06.12,1.42.35.36.23.56.55.62.96h-.74c-.06-.31-.2-.54-.41-.67s-.51-.21-.89-.21c-.47,0-.83.12-1.1.36s-.4.59-.4,1.03v.38c0,.42.13.76.38,1.01s.6.37,1.06.37c.41,0,.72-.06.94-.19.22-.13.36-.35.43-.67h.74Z"/>
    <path class="cls-1" d="m10.13,63.09c0,.38-.09.71-.27,1-.18.28-.44.5-.78.65s-.73.22-1.17.22-.82-.08-1.16-.23c-.34-.15-.6-.36-.79-.64-.19-.28-.28-.6-.29-.97v-.28c0-.37.09-.7.28-.99s.45-.51.79-.66c.34-.15.73-.23,1.16-.23s.84.08,1.18.23c.34.15.6.37.78.65.18.29.27.62.27,1v.25Zm-.73-.25c0-.46-.13-.81-.4-1.06-.26-.25-.63-.37-1.11-.37s-.83.12-1.09.37c-.27.25-.4.59-.41,1.03v.29c0,.45.13.8.4,1.05.27.26.64.38,1.11.38s.84-.12,1.1-.36c.26-.24.39-.59.4-1.04v-.29Z"/>
    <path class="cls-1" d="m16.08,64.91h-.74l-2.79-2.99v2.99h-.74v-3.89h.74l2.8,3.01v-3.01h.73v3.89Z"/>
    <path class="cls-1" d="m21.69,61.44h-1.78v3.47h-.73v-3.47h-1.78v-.42h4.29v.42Z"/>
    <path class="cls-1" d="m26.23,63.11h-2.41v1.38h2.79v.42h-3.53v-3.89h3.49v.42h-2.76v1.25h2.41v.42Z"/>
    <path class="cls-1" d="m32.38,64.91h-.74l-2.79-2.99v2.99h-.74v-3.89h.74l2.8,3.01v-3.01h.73v3.89Z"/>
    <path class="cls-1" d="m37.99,61.44h-1.78v3.47h-.73v-3.47h-1.78v-.42h4.29v.42Z"/>
    <path class="cls-1" d="m42.71,61.03l1.81,3.17,1.81-3.17h.95v3.89h-.73v-1.51l.07-1.63-1.82,3.15h-.56l-1.82-3.14.07,1.63v1.51h-.73v-3.89h.95Z"/>
    <path class="cls-1" d="m52.3,63.89h-2.33l-.52,1.02h-.75l2.12-3.89h.64l2.12,3.89h-.75l-.53-1.02Zm-2.1-.42h1.89l-.95-1.82-.94,1.82Z"/>
    <path class="cls-1" d="m59.18,64.91h-.74l-2.79-2.99v2.99h-.74v-3.89h.74l2.8,3.01v-3.01h.73v3.89Z"/>
    <path class="cls-1" d="m64.2,63.89h-2.33l-.52,1.02h-.75l2.12-3.89h.64l2.12,3.89h-.75l-.53-1.02Zm-2.1-.42h1.89l-.95-1.82-.94,1.82Z"/>
    <path class="cls-1" d="m70.87,64.4c-.19.19-.45.33-.79.42-.34.09-.73.14-1.18.14s-.85-.07-1.2-.22c-.35-.15-.62-.36-.81-.63-.19-.27-.29-.59-.3-.95v-.34c0-.59.19-1.04.59-1.36.39-.32.94-.48,1.64-.48.58,0,1.05.1,1.4.31.35.21.57.5.65.88h-.73c-.14-.52-.57-.77-1.31-.77-.49,0-.86.12-1.12.36-.25.24-.38.59-.38,1.05v.32c0,.44.14.78.43,1.04.28.26.67.39,1.16.39.27,0,.51-.02.72-.06.21-.04.38-.11.51-.22v-.87h-1.28v-.42h2.01v1.42Z"/>
    <path class="cls-1" d="m75.81,63.11h-2.41v1.38h2.79v.42h-3.53v-3.89h3.49v.42h-2.76v1.25h2.41v.42Z"/>
    <path class="cls-1" d="m78.65,61.03l1.81,3.17,1.81-3.17h.95v3.89h-.73v-1.51l.07-1.63-1.82,3.15h-.56l-1.82-3.14.07,1.63v1.51h-.73v-3.89h.95Z"/>
    <path class="cls-1" d="m88.24,63.11h-2.41v1.38h2.79v.42h-3.53v-3.89h3.49v.42h-2.76v1.25h2.41v.42Z"/>
    <path class="cls-1" d="m94.39,64.91h-.74l-2.79-2.99v2.99h-.74v-3.89h.74l2.8,3.01v-3.01h.73v3.89Z"/>
    <path class="cls-1" d="m100,61.44h-1.78v3.47h-.73v-3.47h-1.78v-.42h4.29v.42Z"/>
  </g>
</svg>