<?xml version="1.0" encoding="UTF-8"?>
<svg id="Layer_1" data-name="Layer 1" xmlns="http://www.w3.org/2000/svg" viewBox="0 0 100 38">
  <defs>
    <style>
      .cls-1 {
        fill: #fff;
        stroke-width: 0px;
      }
    </style>
  </defs>
  <g>
    <path class="cls-1" d="m0,32.12c2.77-4.23,26.42-14.16,30.51-14.16s1.9,3.59,3.94,5.52c2.05,1.93,41.9-10.94,65.55,8.74-29.63-15.91-62.63-5.15-65.98-6.53-3.36-1.38-.44-3.77-3.21-5.15-2.77-1.38-23.51,7.27-30.8,11.59Z"/>
    <path class="cls-1" d="m37.82,9.69c5.54,5.4,8.91,7.35,8.91,7.35,0,0-8.79-1.87-11.81-4.89C31.89,9.13,30.02.34,30.02.34c0,0,2.56,4.24,7.79,9.35Z"/>
  </g>
  <g>
    <path class="cls-1" d="m12.13,35.55h-1.52v2.11h-1.36v-5.49h2.76c.91,0,1.6.14,2.1.43.49.29.74.7.74,1.23,0,.37-.13.68-.38.92-.25.25-.61.44-1.06.57l1.76,2.29v.05h-1.46l-1.57-2.11Zm-1.52-.77h1.4c.46,0,.82-.08,1.08-.24s.39-.38.39-.67-.12-.52-.36-.68c-.24-.16-.6-.24-1.07-.25h-1.44v1.84Z"/>
    <path class="cls-1" d="m22.73,36.38h-3.04l-.64,1.28h-1.42l2.96-5.49h1.22l2.97,5.49h-1.42l-.64-1.28Zm-2.66-.77h2.27l-1.14-2.28-1.14,2.28Z"/>
    <path class="cls-1" d="m27.89,37.66v-5.49h2.32c.69,0,1.31.11,1.85.32.54.22.95.52,1.25.92s.44.85.44,1.37v.28c0,.52-.15.98-.44,1.37-.3.39-.72.7-1.27.91s-1.18.32-1.88.32h-2.26Zm1.36-4.72v3.96h.89c.71,0,1.26-.16,1.65-.47.38-.31.58-.76.58-1.35v-.31c0-.6-.19-1.05-.56-1.37-.37-.31-.91-.47-1.61-.47h-.95Z"/>
    <path class="cls-1" d="m41.58,36.38h-3.04l-.64,1.28h-1.42l2.96-5.49h1.22l2.97,5.49h-1.42l-.64-1.28Zm-2.66-.77h2.27l-1.14-2.28-1.14,2.28Z"/>
    <path class="cls-1" d="m49.62,35.55h-1.52v2.11h-1.36v-5.49h2.76c.91,0,1.6.14,2.1.43.49.29.74.7.74,1.23,0,.37-.13.68-.38.92-.25.25-.61.44-1.06.57l1.76,2.29v.05h-1.46l-1.57-2.11Zm-1.52-.77h1.4c.46,0,.82-.08,1.08-.24.26-.16.39-.38.39-.67s-.12-.52-.36-.68c-.24-.16-.6-.24-1.07-.25h-1.44v1.84Z"/>
    <path class="cls-1" d="m67.02,37.66h-1.36v-2.44h-3.51v2.44h-1.36v-5.49h1.36v2.29h3.51v-2.29h1.36v5.49Z"/>
    <path class="cls-1" d="m72.27,37.66h-1.36v-5.49h1.36v5.49Z"/>
    <path class="cls-1" d="m77.52,36.9h3.56v.76h-4.92v-5.49h1.36v4.73Z"/>
    <path class="cls-1" d="m85.7,36.9h3.56v.76h-4.92v-5.49h1.36v4.73Z"/>
  </g>
</svg>