<?xml version="1.0" encoding="UTF-8"?>
<svg id="Layer_2" data-name="Layer 2" xmlns="http://www.w3.org/2000/svg" viewBox="0 0 523.51 223.92">
  <defs>
    <style>
      .cls-1 {
        fill: #356397;
      }
    </style>
  </defs>
  <g>
    <path class="cls-1" d="M85.52,61.7c-2.9,14.02-11.41,27.55-23.91,34.75-5.02,2.9-10.94,4.71-15.2,8.73-4.55,3.95-5.55,11.02-.27,14.67,8.14,5.4,18.8,1.02,26.3-3.69,27.11-16.55,37.64-60.24,33.71-90.04-2.65-20.42-19.85-31.59-39.23-23.42-12.85,5.39-21.12,17.4-27.51,29.31-6.95,12.25-61.12,135.21-29.68,128.9,16.59-8.17,16.6-33.6,19.89-49.59,2.48-13.9,6.21-27.57,11.11-40.79,5.82-14.83,11.93-30.02,22.33-42.22,8.47-10.05,20.7-10.2,23.93,4.28,2.3,9.73.93,19.05-1.38,28.74l-.09.38Z"/>
    <path class="cls-1" d="M523.48,19.17c.32-6.21-2-13.87-9.09-14.45-8.49-.89-14.25,6.51-18.28,12.99-11.56,18.31-19.26,35.12-25.91,55.6-.91,3.47-2.94,5.68-6.92,4.93-14.85-2.5-28.81,5.55-37.58,17.1-8.28,10.53-12.01,26.02-25.41,31.81-2.5.92-7.11,2.98-7.94-.5-.21-1.36.45-3.06.99-4.41,4.9-10.69,10.18-21.15,15.04-31.83,2.66-5.11,2.33-12.61-4.7-13.37-14.76-.51-35.77,15.16-46.17,25.13-3.72,3.59-2.97-.68-1.6-4.33,1.65-4.5,4.42-8.76,5.87-13.64.3-1.14.55-2.44-.17-3.38-1.07-1.44-4.53-.75-7.33-1-4.56-.4-8.88-1.64-11.37,3.36-11.95,18.74-28.42,35.55-48.32,45.53-10.15,1.69,2.32-18.5,3.93-22.14,2.71-4.44-.1-4.84-3.81-4.82-5.44-.38-10.77-.4-13.53,4.85-5.96,9.02-12.65,18.85-22.06,24.47-12.39,5.88-16.53-6.87-11.51-16.47,9.8-18.26,33.35-24.13,52.66-22.85,5.65.45,5.86-9.69,3.22-12.54-4.18-4.44-11.2-3.14-16.97-2.88-7.55.54-10.46,1.76-20.45,4.23-31.83,7.87-37.88,38.2-60.11,50.18-8.49,4.46-4.26-9.51-2.56-13.26,7.05-16.32,12.37-32.39,19.6-48.69,6.35-14.49,13.79-29.3,15.1-45.26,1.73-32.32-16.88-19.61-22.57,2.08-4.05,14.85-10.04,29.08-14.24,43.89-5.35,20.13-15.49,38.76-32.55,49.3-2.33,1.45-4.86,2.89-6.83,2.04-5.15-3.32-4.83-11.52-4.06-16.96.82-4.39,2.65-8.74,1.66-12.9-1.6-7.39-8.12-12.77-15.19-14.8-19.5-5.42-39.87,10.41-47.32,27.58-4.82,12.98-6.37,29.76,3.04,41.05,7.85,10.44,30.73,10.3,39.94,1.88,3.2-2.51,4.69-7.05,7.8-9.47,1.27-.78,2.89-.82,4.36-.46,10.29,2.5,17.82-1.75,25.4-7.03,2.03-1.42,4.27-3.09,2.54,1.24-4.24,9.86-1.05,21.65,11.22,22.05,10.06.63,19.95-4.34,26.26-12.08,1.53-1.87,4.07-4.2,6.44-3.69,1.87.1,2.6.58,3.03,2.08.24.62.63,1.65,1.16,2.81,7.55,15.52,24.62,13.24,37.14,4.6,1.87-1.12,3.52-1.8,5.06,0,10.78,15.91,33.29-5.87,43.96-12.9,1.65-1.26,4.22-2.97,3.39.96-.69,3.83-2.07,7.93-2.32,11.86-.22,3.24,2.28,5.24,5.61,5.41,20.22-2.01,35.91-28.81,53.62-38.76,2.15-1.37,3.48-1.37,2.24,1.41-3.02,6.92-6.04,14.18-9.08,20.97-1.81,4.23-2.54,9.91.7,13.6,3.54,3.63,9.5,3.35,14.19,2.63,10.25-1.53,18.78-7.11,26.66-13.36,3.58-2.41,6.17,1.25,7.68,4.24,4.81,8.5,15.87,12.52,25.24,10.57,4.34-.8,8.49-2.61,12.37-4.65,1.11-.54,2.16-.9,3.15-.86,1.83.02,3.43,1.56,4.84,2.75,8.92,7.72,20.19-.34,29.03-4.34,4.87-2.42,9.83-4.77,14.66-7.24,2.44-1.26,3.89-3.38,4.27-6.03.56-4.61,1.39-9.44,1.62-14.04-.11-1.87-1.37-1.27-2.47-.5-8.02,6.31-16.67,11.93-25.92,16.24-1.15.56-2.82,1.08-3.95.67-5.15-3.53,1.8-12.53,4.78-16.03,24-27.39,38.08-63.35,38.78-99.81v-.37ZM136.02,107.83c-3,4.31-3.74,10.09-1.98,15.04.35,1.09.68,2.23.56,3.34-1.62,6.54-10.2,12.53-16.56,8.21-7.11-4.6-6.48-14.45-3.46-21.37,3.71-9.04,10.76-21.3,21.92-19.94,2.42.58,4.48,2.55,4.64,5.07.31,3.41-2.95,6.56-4.91,9.35l-.21.3ZM459.53,119.29c-.9,3.97-2.22,8.61-5.66,11.31-4.73,3.89-13.77,5.91-16.08-1.63-5.8-13.55,1.43-31.4,16.49-34.5,3.19-.6,10.58-1.59,9.96,3.46-1.37,6.82-3.17,14.3-4.63,21.01l-.08.35ZM482.28,92.02c3.25-23.05,9.95-47.54,23.45-66.63,2.56-2.39,5.15-1.73,4.44,1.58-4.96,22.18-12.67,43.8-22.21,64.41-.7,1.48-1.71,3.57-3.12,4.16-1.45.64-2.6-1.06-2.56-3.15v-.37Z"/>
  </g>
  <g>
    <path class="cls-1" d="M21.17,223.92c-11.53,0-18.59-7.28-18.59-19.5s7.11-19.5,18.53-19.5c7.92,0,14.28,3.27,16.18,10.44l-8.66,3.5c-1.09-4.7-3.27-6.19-7.17-6.19-5.51,0-8.78,4.01-8.78,11.76s3.04,11.76,8.6,11.76c4.24,0,6.6-1.95,7.51-6.19l8.95,2.52c-2.24,7.92-8.55,11.41-16.58,11.41Z"/>
    <path class="cls-1" d="M58.86,209.53h-5.91v13.82h-9.69v-37.86h18.07c9.12,0,14.28,4.24,14.28,12.05,0,5.51-2.58,9.23-7.34,10.96l9.58,14.86h-10.9l-8.09-13.82ZM52.95,202.53h6.71c4.19,0,6.02-1.43,6.02-4.82s-1.83-4.76-6.02-4.76h-6.71v9.58Z"/>
    <path class="cls-1" d="M104.46,214.8h-13.08l-2.64,8.55h-9.92l13.31-37.86h11.82l13.25,37.86h-10.15l-2.58-8.55ZM102.4,208.09l-2.75-9.06-1.66-5.97h-.12l-1.55,5.91-2.81,9.12h8.89Z"/>
    <path class="cls-1" d="M155.74,223.35h-10.96l-11.76-20.48-2.87-5.74h-.06l.23,7.11v19.1h-8.72v-37.86h10.96l11.76,20.48,2.87,5.74h.06l-.23-7.11v-19.1h8.72v37.86Z"/>
    <path class="cls-1" d="M194.35,215.72v7.63h-30.23v-37.86h29.48v7.63h-19.62v7.69h15.6v7.17h-15.6v7.74h20.36Z"/>
    <path class="cls-1" d="M248.5,223.92c-4.02,0-6.54-.52-10.32-3.56-2.58,2.24-6.31,3.56-10.9,3.56-7.74,0-13.25-3.61-13.31-10.27,0-3.56,1.66-7.92,7.74-10.21-3.15-3.79-3.9-5.91-3.9-8.89,0-4.76,3.61-9.64,11.53-9.64s11.36,3.96,11.36,8.95c0,4.47-2.41,8.03-8.2,10.38.8.86,1.66,1.89,2.7,2.98l3.84,4.19c.92-2.01,1.43-4.42,1.32-7.51l6.48.17c0,4.36-1.26,8.26-3.73,11.24,2.18,1.66,3.84,2.06,6.25,1.78l-.86,6.83ZM228.26,217.5c2.01,0,3.9-.4,5.56-1.15-.98-.98-2.12-2.12-3.33-3.44l-5.05-5.22c-2.52,1.89-3.1,3.33-3.1,5.28,0,2.7,2.41,4.53,5.91,4.53ZM226.13,194.9c0,1.55.57,2.64,3.04,5.62,3.27-2.35,3.79-4.07,3.79-6.08s-1.32-3.1-3.38-3.1c-2.18,0-3.44,1.38-3.44,3.56Z"/>
    <path class="cls-1" d="M304.38,185.49v37.86h-9.87v-15.26h-14.45v15.26h-9.87v-37.86h9.87v14.97h14.45v-14.97h9.87Z"/>
    <path class="cls-1" d="M334.44,214.8h-13.08l-2.64,8.55h-9.92l13.31-37.86h11.82l13.25,37.86h-10.15l-2.58-8.55ZM332.37,208.09l-2.75-9.06-1.66-5.97h-.12l-1.55,5.91-2.81,9.12h8.89Z"/>
    <path class="cls-1" d="M383.2,207.92c0,10.67-5.74,16-16.92,16s-16.92-5.33-16.92-16v-22.43h9.92v22.6c0,5.45,2.29,8.09,7,8.09s7.11-2.64,7.11-8.09v-22.6h9.81v22.43Z"/>
    <path class="cls-1" d="M419.8,215.72v7.63h-28.85v-37.86h9.87v30.23h18.99Z"/>
    <path class="cls-1" d="M435.34,223.35h-9.87v-37.86h9.87v37.86Z"/>
    <path class="cls-1" d="M477.85,223.35h-10.96l-11.76-20.48-2.87-5.74h-.06l.23,7.11v19.1h-8.72v-37.86h10.96l11.76,20.48,2.87,5.74h.06l-.23-7.11v-19.1h8.72v37.86Z"/>
    <path class="cls-1" d="M520.18,202.87v20.48h-6.88l-.29-4.42c-2.06,3.15-5.62,4.99-10.84,4.99-10.21,0-17.61-6.88-17.61-19.45s7.23-19.56,18.87-19.56c8.6,0,13.65,2.87,16.69,9.69l-9.12,3.61c-.97-3.84-3.67-5.56-7.28-5.56-5.74,0-9.01,3.96-9.01,11.76s3.15,11.93,9.29,11.93c4.47,0,7.8-2.01,7.8-6.25v-.57h-9.41v-6.65h17.78Z"/>
  </g>
</svg>