<?xml version="1.0" encoding="utf-8"?>
<!-- Generator: Adobe Illustrator 23.1.0, SVG Export Plug-In . SVG Version: 6.00 Build 0)  -->
<svg version="1.1" id="Layer_1" xmlns="http://www.w3.org/2000/svg" xmlns:xlink="http://www.w3.org/1999/xlink" x="0px" y="0px"
	 viewBox="0 0 24 24" style="enable-background:new 0 0 24 24;" xml:space="preserve">
<style type="text/css">
	.st0{fill:#231F20;}
	.st1{fill:#FFFFFF;}
</style>
<title>55Untitled-1</title>
<path class="st0" d="M12,0C5.4,0,0,5.4,0,12s5.4,12,12,12s12-5.4,12-12S18.6,0,12,0z M12,22.7C6.1,22.7,1.3,17.9,1.3,12
	C1.3,6.1,6.1,1.3,12,1.3c5.9,0,10.7,4.8,10.7,10.7S17.9,22.7,12,22.7z"/>
<rect x="11.5" y="3" transform="matrix(0.7071 -0.7071 0.7071 0.7071 -4.9706 12)" class="st1" width="1" height="18"/>
<polygon class="st0" points="6,5.3 5.3,6 18,18.7 18.7,18 6,5.3 "/>
<rect x="3" y="11.5" transform="matrix(0.7071 -0.7071 0.7071 0.7071 -4.9706 12)" class="st1" width="18" height="1"/>
<polygon class="st0" points="18,5.3 5.3,18 6,18.7 18.7,6 18,5.3 "/>
</svg>
