<svg xmlns="http://www.w3.org/2000/svg" viewBox="0 0 20 20"><defs><style>.a{fill:#bc0000;}.b{fill:#870000;}.b,.c{fill-rule:evenodd;}.c{fill:#fff;}</style></defs><title>circle-x</title><circle class="a" cx="10" cy="10" r="10"/><path class="b" d="M15.06452,7.77592a15.70808,15.70808,0,0,1-1.3117-3.20233A12.884,12.884,0,0,0,10.12449,7.6749,13.40838,13.40838,0,0,0,6.24718,4.28163,15.71086,15.71086,0,0,1,4.93548,7.484c.75511.16842,2.004,1.26,3.31174,2.65283a39.49387,39.49387,0,0,0-2.578,4.3423A7.65552,7.65552,0,0,0,6.9142,16.71837a33.13314,33.13314,0,0,1,3.205-4.4379,31.89839,31.89839,0,0,1,2.96656,4.14588,7.65537,7.65537,0,0,0,1.24494-2.23928,39.18054,39.18054,0,0,0-2.348-4.0048A8.73915,8.73915,0,0,1,15.06452,7.77592Z"/><path class="c" d="M15.06452,6.77592a15.70808,15.70808,0,0,1-1.3117-3.20233A12.884,12.884,0,0,0,10.12449,6.6749,13.40838,13.40838,0,0,0,6.24718,3.28163,15.71086,15.71086,0,0,1,4.93548,6.484c.75511.16842,2.004,1.26,3.31174,2.65283a39.49387,39.49387,0,0,0-2.578,4.3423A7.65552,7.65552,0,0,0,6.9142,15.71837a33.13314,33.13314,0,0,1,3.205-4.4379,31.89839,31.89839,0,0,1,2.96656,4.14588,7.65537,7.65537,0,0,0,1.24494-2.23928,39.18054,39.18054,0,0,0-2.348-4.0048A8.73915,8.73915,0,0,1,15.06452,6.77592Z"/></svg>