<?xml version="1.0" encoding="utf-8"?>
<!-- Generator: Adobe Illustrator 27.1.0, SVG Export Plug-In . SVG Version: 6.00 Build 0)  -->
<svg version="1.1" id="Layer_1" xmlns="http://www.w3.org/2000/svg" xmlns:xlink="http://www.w3.org/1999/xlink" x="0px" y="0px"
	 viewBox="0 0 20 20" style="enable-background:new 0 0 20 20;" xml:space="preserve">
<style type="text/css">
	.st0{fill:#F4A925;}
	.st1{fill:#A5701B;}
	.st2{fill:#FFFFFF;}
</style>
<circle class="st0" cx="10" cy="10" r="10"/>
<path class="st1" d="M9.4,16.9c-0.4,0-0.7-0.1-1-0.3C8.1,16.3,8,16,8,15.7c0-0.4,0.2-0.7,0.5-1c0.3-0.3,0.7-0.4,1.1-0.4
	c0.4,0,0.7,0.1,1,0.4c0.2,0.2,0.4,0.6,0.4,0.9c0,0.4-0.2,0.7-0.5,1C10.2,16.7,9.8,16.9,9.4,16.9z M12.5,5.6
	c-0.1,1.2-0.3,2.4-0.7,3.6c-0.3,1-0.6,2.1-1,3.1c-0.3,0.1-0.6,0.2-0.9,0.2c-0.2,0-0.5,0-0.7-0.1C9.4,10,9.5,8,9.5,6.7L9.4,5.4
	c0.9-0.3,1.9-0.5,2.9-0.5C12.4,5.1,12.5,5.4,12.5,5.6z"/>
<path class="st2" d="M8.6,16.4c-0.4,0-0.7-0.1-1-0.3c-0.2-0.2-0.4-0.6-0.3-0.9c0-0.4,0.2-0.7,0.5-1c0.3-0.3,0.7-0.4,1.1-0.4
	c0.4,0,0.7,0.1,1,0.4c0.2,0.2,0.4,0.6,0.4,0.9c0,0.4-0.2,0.7-0.5,1C9.5,16.3,9.1,16.4,8.6,16.4z M11.7,5.2c-0.1,1.2-0.3,2.4-0.7,3.6
	c-0.3,1-0.6,2.1-1,3.1C9.7,11.9,9.4,12,9.1,12c-0.2,0-0.5,0-0.7-0.1c0.3-2.4,0.4-4.4,0.4-5.7L8.7,4.9c0.9-0.3,1.9-0.5,2.9-0.5
	C11.7,4.6,11.8,4.9,11.7,5.2z"/>
</svg>
