<svg xmlns="http://www.w3.org/2000/svg" viewBox="0 0 20 17.65392"><defs><style>.a{fill:#e0c503;}.b{fill:#917d03;}.c{fill:#fff;}</style></defs><title>exclamation</title><path class="a" d="M11.08287.94672a1.14465,1.14465,0,0,0-2.16574,0L.25419,15.95138C-.34139,16.983.1459,17.827,1.33706,17.827H18.66294c1.19116,0,1.67845-.844,1.08287-1.87558Z" transform="translate(0 -0.17304)"/><path class="b" d="M9.475,16.75512a1.37679,1.37679,0,0,1-.98975-.33008A1.18414,1.18414,0,0,1,8.14,15.52465a1.31455,1.31455,0,0,1,.46534-.99707,1.59121,1.59121,0,0,1,1.11718-.42773,1.36163,1.36163,0,0,1,1.00489.35254,1.23089,1.23089,0,0,1,.35254.9082,1.26533,1.26533,0,0,1-.48.97461A1.65711,1.65711,0,0,1,9.475,16.75512ZM12.58,5.51a15.29341,15.29341,0,0,1-.71241,3.60743,18.651,18.651,0,0,1-1.02734,3.05273,2.64086,2.64086,0,0,1-.88525.165,3.64012,3.64012,0,0,1-.71973-.06055Q9.62488,8.60009,9.62488,6.53L9.535,5.22485a9.88742,9.88742,0,0,1,2.8501-.50977A1.26963,1.26963,0,0,1,12.58,5.51Z" transform="translate(0 -0.17304)"/><path class="c" d="M8.755,16.28492a1.37678,1.37678,0,0,1-.98974-.33008A1.18415,1.18415,0,0,1,7.42,15.05445a1.31455,1.31455,0,0,1,.46534-.99707,1.59115,1.59115,0,0,1,1.11718-.42773,1.36167,1.36167,0,0,1,1.00489.35253,1.23093,1.23093,0,0,1,.35254.90821,1.26532,1.26532,0,0,1-.48.97461A1.65712,1.65712,0,0,1,8.755,16.28492ZM11.86,5.0398a15.29326,15.29326,0,0,1-.71241,3.60742A18.65086,18.65086,0,0,1,10.12024,11.7a2.64086,2.64086,0,0,1-.88525.165,3.64012,3.64012,0,0,1-.71973-.06055q.38964-3.67456.38965-5.74463L8.81506,4.75465a9.88742,9.88742,0,0,1,2.8501-.50977A1.26961,1.26961,0,0,1,11.86,5.0398Z" transform="translate(0 -0.17304)"/></svg>