<svg xmlns="http://www.w3.org/2000/svg" viewBox="0 0 20 20"><defs><style>.a{fill:#2a50be;}.b{fill:#1b396b;}.c{fill:#fff;}</style></defs><title>information</title><circle class="a" cx="10" cy="10" r="10"/><path class="b" d="M11.715,9.56116a10.03576,10.03576,0,0,1-.40527,2.16748A10.41855,10.41855,0,0,0,10.905,13.7384c0,.31446.04492.47266.13477.47266a3.49561,3.49561,0,0,0,.68994-.28516l.18017-.08984.25489.52441c-.08985.08008-.21.18067-.35987.29981a5.28481,5.28481,0,0,1-.83984.48828,2.584,2.584,0,0,1-1.14014.30762,1.07307,1.07307,0,0,1-.82519-.32325,1.22525,1.22525,0,0,1-.29981-.87011,9.06078,9.06078,0,0,1,.375-1.94922,9.45968,9.45968,0,0,0,.375-1.82276,2.023,2.023,0,0,0-.39013-1.18505L8.925,9.1261l.01465-.19531a10.48875,10.48875,0,0,1,2.58008-.22461A1.35557,1.35557,0,0,1,11.715,9.56116Zm-1.71-2.49756a1.04935,1.04935,0,0,1-.30029-.7876,1.14356,1.14356,0,0,1,.41259-.87012,1.37541,1.37541,0,0,1,.95264-.375,1.135,1.135,0,0,1,.83984.3003,1.06569,1.06569,0,0,1,.29981.78711,1.12159,1.12159,0,0,1-.42725.86279,1.41,1.41,0,0,1-.95263.375A1.13079,1.13079,0,0,1,10.00508,7.0636Z" transform="translate(-0.11562 0.13076)"/><path class="c" d="M10.80547,9.0741a10.03607,10.03607,0,0,1-.40528,2.16748,10.43218,10.43218,0,0,0-.40478,2.00976q0,.47241.13476.47266a3.46156,3.46156,0,0,0,.68995-.28516l.18017-.08984.25488.52441q-.13476.12012-.35986.30078a5.37948,5.37948,0,0,1-.83984.48731,2.584,2.584,0,0,1-1.14014.30762,1.07248,1.07248,0,0,1-.82519-.32227,1.22775,1.22775,0,0,1-.29981-.87109,9.066,9.066,0,0,1,.375-1.94922,9.45255,9.45255,0,0,0,.375-1.82276,2.02292,2.02292,0,0,0-.39014-1.18505L8.01543,8.639l.01465-.19531a10.48866,10.48866,0,0,1,2.58007-.22461A1.35548,1.35548,0,0,1,10.80547,9.0741Zm-1.71-2.49756a1.04936,1.04936,0,0,1-.3003-.7876,1.14357,1.14357,0,0,1,.4126-.87012,1.37539,1.37539,0,0,1,.95264-.375,1.135,1.135,0,0,1,.83984.3003,1.06569,1.06569,0,0,1,.29981.78711,1.12159,1.12159,0,0,1-.42725.86279,1.41,1.41,0,0,1-.95264.375A1.13076,1.13076,0,0,1,9.09551,6.57654Z" transform="translate(-0.11562 0.13076)"/></svg>