<?xml version="1.0" encoding="utf-8"?>
<!-- Generator: Adobe Illustrator 23.1.0, SVG Export Plug-In . SVG Version: 6.00 Build 0)  -->
<svg version="1.1" id="Layer_1" xmlns="http://www.w3.org/2000/svg" xmlns:xlink="http://www.w3.org/1999/xlink" x="0px" y="0px"
	 viewBox="0 0 30 30" style="enable-background:new 0 0 30 30;" xml:space="preserve">
<style type="text/css">
	.st0{opacity:0;fill:#FFFFFF;}
	.st1{opacity:0.35;enable-background:new    ;}
	.st2{fill:#FFFFFF;}
</style>
<rect x="0" y="0" class="st0" width="30" height="30"/>
<path class="st1" d="M20.6,18.2c2.9-4.3,2.3-10.1-1.4-13.8c-4.3-4.2-11.1-4.2-15.4,0c-4.2,4.3-4.2,11.1,0,15.4
	c3.6,3.6,9.4,4.2,13.6,1.4l8.2,8.8l3.7-3.7L20.6,18.2z M19,12.1c0,4.1-3.3,7.5-7.4,7.5c-4.1,0-7.5-3.3-7.5-7.4
	c0-4.1,3.3-7.5,7.4-7.5c2,0,3.9,0.8,5.3,2.2C18.2,8.3,19,10.2,19,12.1z"/>
<path class="st2" d="M20.6,17c2.9-4.3,2.3-10.1-1.4-13.8c-4.3-4.2-11.1-4.2-15.4,0c-4.2,4.3-4.2,11.1,0,15.4
	c3.6,3.6,9.4,4.2,13.6,1.4l8.1,8.8l3.8-3.7L20.6,17z M19,10.9c0,4.1-3.3,7.5-7.4,7.5S4.1,15,4.1,10.9c0-4.1,3.3-7.5,7.4-7.5
	c2,0,3.9,0.8,5.3,2.2C18.2,7,19,8.9,19,10.9z"/>
</svg>
