<svg xmlns="http://www.w3.org/2000/svg" viewBox="0 0 30 30"><defs><style>.a{fill:#fff;opacity:0;}.b{fill:#261915;}</style></defs><title>Shopping Cart</title><rect class="a" width="30" height="30"/><path class="b" d="M13.99427,25.959a2.14908,2.14908,0,1,1-2.149-2.14914A2.14883,2.14883,0,0,1,13.99427,25.959Z" transform="translate(0 0)"/><path class="b" d="M25.40138,25.959a2.14914,2.14914,0,1,1-2.14914-2.14914A2.14893,2.14893,0,0,1,25.40138,25.959Z" transform="translate(0 0)"/><path class="b" d="M29.687,5.85141a1.42181,1.42181,0,0,0-1.11147-.52087H6.95523L6.4977,3.16383A1.633,1.633,0,0,0,4.92786,1.892H1.07457a1.07454,1.07454,0,1,0,0,2.14907H4.48713s.54557,2.58441.54651,2.59069l3.0876,14.61976a1.63449,1.63449,0,0,0,1.56983,1.27178h16.1367a1.07454,1.07454,0,1,0,0-2.14907H10.13263L9.8321,18.95254l16.82507-1.79779a1.70563,1.70563,0,0,0,1.45324-1.31251l1.85778-8.79538A1.42374,1.42374,0,0,0,29.687,5.85141Zm-3.60731,9.2038L9.38549,16.83871,7.40937,7.4796h20.2703Z" transform="translate(0 0)"/></svg>