<?xml version="1.0" encoding="UTF-8"?>
<svg id="Layer_1" data-name="Layer 1" xmlns="http://www.w3.org/2000/svg" xmlns:xlink="http://www.w3.org/1999/xlink" viewBox="0 0 49 42">
  <defs>
    <style>
      .cls-1 {
        fill: url(#linear-gradient-8);
      }

      .cls-1, .cls-2, .cls-3, .cls-4, .cls-5, .cls-6, .cls-7, .cls-8, .cls-9, .cls-10, .cls-11, .cls-12, .cls-13, .cls-14, .cls-15, .cls-16, .cls-17, .cls-18 {
        stroke-width: 0px;
      }

      .cls-1, .cls-2, .cls-3, .cls-4, .cls-5, .cls-6, .cls-8, .cls-9, .cls-10, .cls-11, .cls-12, .cls-13, .cls-14, .cls-15, .cls-16, .cls-17, .cls-18 {
        fill-rule: evenodd;
      }

      .cls-2 {
        fill: url(#linear-gradient-11);
      }

      .cls-3 {
        fill: url(#linear-gradient-7);
      }

      .cls-4 {
        fill: url(#linear-gradient-16);
      }

      .cls-5 {
        fill: url(#linear-gradient-9);
      }

      .cls-6 {
        fill: url(#linear-gradient-3);
      }

      .cls-7 {
        fill: none;
      }

      .cls-8 {
        fill: #1a4580;
      }

      .cls-9 {
        fill: url(#linear-gradient);
      }

      .cls-10 {
        fill: url(#linear-gradient-13);
      }

      .cls-11 {
        fill: url(#linear-gradient-2);
      }

      .cls-12 {
        fill: url(#linear-gradient-15);
      }

      .cls-13 {
        fill: url(#linear-gradient-5);
      }

      .cls-14 {
        fill: url(#linear-gradient-12);
      }

      .cls-15 {
        fill: url(#linear-gradient-14);
      }

      .cls-16 {
        fill: url(#linear-gradient-6);
      }

      .cls-17 {
        fill: url(#linear-gradient-4);
      }

      .cls-18 {
        fill: url(#linear-gradient-10);
      }
    </style>
    <linearGradient id="linear-gradient" x1="10714.35" y1="-14115.46" x2="10125.39" y2="-14647.81" gradientTransform="translate(-264.78 -386.85) scale(.03 -.03)" gradientUnits="userSpaceOnUse">
      <stop offset="0" stop-color="#3173ba"/>
      <stop offset="1" stop-color="#154988"/>
    </linearGradient>
    <linearGradient id="linear-gradient-2" x1="10228.17" y1="-14731.01" x2="9857.17" y2="-14649.63" gradientTransform="translate(-264.78 -386.85) scale(.03 -.03)" gradientUnits="userSpaceOnUse">
      <stop offset="0" stop-color="#1654a6"/>
      <stop offset="1" stop-color="#1e4280"/>
    </linearGradient>
    <linearGradient id="linear-gradient-3" x1="10474.52" y1="-13891.1" x2="10349.59" y2="-13527.9" xlink:href="#linear-gradient-2"/>
    <linearGradient id="linear-gradient-4" x1="10610.58" y1="-14739.37" x2="10228.2" y2="-14652.64" gradientTransform="translate(-264.78 -386.85) scale(.03 -.03)" gradientUnits="userSpaceOnUse">
      <stop offset="0" stop-color="#357bbf"/>
      <stop offset="1" stop-color="#204fa2"/>
    </linearGradient>
    <linearGradient id="linear-gradient-5" x1="10983.77" y1="-14736.9" x2="10611.9" y2="-14655.11" gradientTransform="translate(-264.78 -386.85) scale(.03 -.03)" gradientUnits="userSpaceOnUse">
      <stop offset="0" stop-color="#3173ba"/>
      <stop offset="1" stop-color="#2e66b1"/>
    </linearGradient>
    <linearGradient id="linear-gradient-6" x1="10972.56" y1="-14326.16" x2="10623.11" y2="-14207.33" gradientTransform="translate(-264.78 -386.85) scale(.03 -.03)" gradientUnits="userSpaceOnUse">
      <stop offset="0" stop-color="#4fbcec"/>
      <stop offset="1" stop-color="#349cd7"/>
    </linearGradient>
    <linearGradient id="linear-gradient-7" x1="10215.19" y1="-13992.26" x2="9867.66" y2="-13872.42" gradientTransform="translate(-264.78 -386.85) scale(.03 -.03)" gradientUnits="userSpaceOnUse">
      <stop offset="0" stop-color="#2c5caa"/>
      <stop offset="1" stop-color="#0c549e"/>
    </linearGradient>
    <linearGradient id="linear-gradient-8" x1="10972.08" y1="-13992.26" x2="10624.55" y2="-13872.42" gradientTransform="translate(-264.78 -386.85) scale(.03 -.03)" gradientUnits="userSpaceOnUse">
      <stop offset="0" stop-color="#59caf1"/>
      <stop offset="1" stop-color="#2daee4"/>
    </linearGradient>
    <linearGradient id="linear-gradient-9" x1="10561.42" y1="-14364.72" x2="10025.52" y2="-13995.05" gradientTransform="translate(-264.78 -386.85) scale(.03 -.03)" gradientUnits="userSpaceOnUse">
      <stop offset="0" stop-color="#3a72b9"/>
      <stop offset="1" stop-color="#2e5caa"/>
    </linearGradient>
    <linearGradient id="linear-gradient-10" x1="10597.74" y1="-13995.93" x2="10241.04" y2="-13868.75" gradientTransform="translate(-264.78 -386.85) scale(.03 -.03)" gradientUnits="userSpaceOnUse">
      <stop offset="0" stop-color="#3398d4"/>
      <stop offset="1" stop-color="#3772b9"/>
    </linearGradient>
    <linearGradient id="linear-gradient-11" x1="10215.79" y1="-14325.88" x2="9867.05" y2="-14207.61" gradientTransform="translate(-264.78 -386.85) scale(.03 -.03)" gradientUnits="userSpaceOnUse">
      <stop offset="0" stop-color="#1e53a5"/>
      <stop offset="1" stop-color="#154988"/>
    </linearGradient>
    <linearGradient id="linear-gradient-12" x1="11074.18" y1="-14755.57" x2="10429.77" y2="-14577.16" gradientTransform="translate(-264.78 -386.85) scale(.03 -.03)" gradientUnits="userSpaceOnUse">
      <stop offset="0" stop-color="#5fcbeb"/>
      <stop offset="1" stop-color="#4db5e7"/>
    </linearGradient>
    <linearGradient id="linear-gradient-13" x1="10784.69" y1="-15277.61" x2="9762.39" y2="-14739.8" gradientTransform="translate(-264.78 -386.85) scale(.03 -.03)" gradientUnits="userSpaceOnUse">
      <stop offset="0" stop-color="#76cfe3"/>
      <stop offset="1" stop-color="#4ca7de"/>
    </linearGradient>
    <linearGradient id="linear-gradient-14" x1="10185.67" y1="-14513.76" x2="9367.73" y2="-14262.08" xlink:href="#linear-gradient"/>
    <linearGradient id="linear-gradient-15" x1="9348.81" y1="-14387.92" x2="10204.59" y2="-14387.92" gradientTransform="translate(-264.78 -386.85) scale(.03 -.03)" gradientUnits="userSpaceOnUse">
      <stop offset="0" stop-color="#467cbf"/>
      <stop offset=".5" stop-color="#2264b0"/>
      <stop offset="1" stop-color="#498cca"/>
    </linearGradient>
    <linearGradient id="linear-gradient-16" x1="9560.1" y1="-14391.1" x2="9993.3" y2="-14391.1" gradientTransform="translate(-264.78 -386.85) scale(.03 -.03)" gradientUnits="userSpaceOnUse">
      <stop offset="0" stop-color="#c1cfce"/>
      <stop offset="1" stop-color="#fff"/>
    </linearGradient>
  </defs>
  <rect class="cls-7" y="-3" width="49" height="48"/>
  <g>
    <g>
      <path class="cls-9" d="m31.91,31.16l16.33-9.56c.72-.42.64-1.17-.19-1.65l-15.94-9.34c-.83-.49-2.1-.54-2.82-.11l-16.33,9.56c-.72.42-.64,1.17.19,1.65l15.94,9.34c.83.49,2.1.54,2.82.11Z"/>
      <g>
        <path class="cls-11" d="m25.13,37.12h-8.81c-.95,0-1.73-.78-1.73-1.73v-13.05h10.54v14.78Z"/>
        <path class="cls-6" d="m14.6,3.39v-1.66c0-.95.78-1.73,1.73-1.73h28.53c.95,0,1.73.78,1.73,1.73v1.66H14.6Z"/>
        <polygon class="cls-17" points="25.13 22.34 25.13 37.12 25.13 37.12 36.02 37.12 36.02 22.34 25.13 22.34"/>
        <path class="cls-13" d="m36.02,22.34v14.78h8.83c.95,0,1.73-.78,1.73-1.73v-13.05h-10.56Z"/>
        <polygon class="cls-16" points="36.02 12.79 36.02 22.32 36.02 22.34 46.59 22.34 46.59 22.31 46.59 12.79 36.02 12.79"/>
        <polygon class="cls-3" points="25.13 12.79 25.13 12.77 25.13 3.39 14.6 3.39 14.6 12.78 14.6 12.79 25.13 12.79"/>
        <polygon class="cls-1" points="46.59 12.79 46.59 12.77 46.59 3.39 36.05 3.39 36.05 12.78 36.05 12.79 46.59 12.79"/>
        <polygon class="cls-5" points="36.02 12.79 36.02 22.34 25.13 22.34 25.13 12.79 25.06 12.79 36.02 12.79"/>
        <polygon class="cls-18" points="36.02 3.39 36.02 12.76 36.02 12.79 25.13 12.79 25.13 12.77 25.13 3.39 25.16 3.39 36.02 3.39"/>
        <polygon class="cls-8" points="36.02 12.79 36.02 22.32 36.02 22.34 25.13 22.34 36.02 22.34 36.02 22.32 36.02 12.79"/>
        <polygon class="cls-8" points="46.59 3.39 36.06 3.39 36.02 3.39 36.02 12.76 36.02 12.79 25.13 12.79 36.02 12.79 36.02 12.76 36.02 3.39 36.06 3.39 46.59 3.39"/>
        <polygon class="cls-2" points="25.13 22.34 25.13 22.33 25.13 12.79 14.6 12.79 14.6 22.34 14.6 22.34 25.13 22.34"/>
      </g>
      <path class="cls-14" d="m48.77,20.74v19.03c0,.78-.39,1.46-1,1.86h-.03s.03-.03.03-.03l-17.8-10.21c.68.13,1.4.06,1.88-.23l16.33-9.56c.34-.2.5-.47.49-.75.03-.03.07-.07.1-.11h0Z"/>
      <path class="cls-10" d="m12.41,21.32v18.45c0,1.23,1,2.23,2.23,2.23h31.85c.48,0,.92-.15,1.28-.41L12.41,21.32h0Z"/>
    </g>
    <g>
      <path class="cls-15" d="m2.16,33.13h20.4c1.06,0,1.93-.87,1.93-1.93V10.8c0-1.06-.87-1.93-1.93-1.93H2.16c-1.06,0-1.93.87-1.93,1.93v20.4c0,1.06.87,1.93,1.93,1.93h0Z"/>
      <path class="cls-12" d="m2.16,33.13h20.4c1.06,0,1.93-.87,1.93-1.93V10.8c0-1.06-.87-1.93-1.93-1.93h-.13c1.05,0,1.91.86,1.91,1.91v20.28c0,1.05-.86,1.91-1.91,1.91H2.28c-1.05,0-1.91-.86-1.91-1.91V10.78c0-1.05.86-1.91,1.91-1.91h-.13c-1.06,0-1.93.87-1.93,1.93v20.4c0,1.06.87,1.93,1.93,1.93h0Z"/>
      <path class="cls-4" d="m12.3,27.57c-1.8,0-3.26-.58-4.39-1.75-1.13-1.17-1.69-2.69-1.69-4.57,0-1.98.57-3.58,1.72-4.81,1.15-1.22,2.67-1.84,4.56-1.84,1.79,0,3.24.59,4.34,1.76,1.1,1.17,1.66,2.72,1.66,4.63s-.57,3.56-1.72,4.76c-1.14,1.21-2.64,1.81-4.48,1.81h0Zm.12-10.53c-.99,0-1.78.37-2.36,1.12-.58.74-.87,1.72-.87,2.95s.29,2.22.87,2.95c.58.72,1.35,1.08,2.29,1.08s1.75-.35,2.32-1.05c.57-.7.86-1.68.86-2.92s-.28-2.31-.83-3.03c-.55-.72-1.31-1.08-2.27-1.08Z"/>
    </g>
  </g>
</svg>