<?xml version="1.0" encoding="UTF-8"?>
<svg id="Layer_1" data-name="Layer 1" xmlns="http://www.w3.org/2000/svg" viewBox="0 0 32 42.3">
  <defs>
    <style>
      .cls-1 {
        fill: #ee2e38;
      }

      .cls-1, .cls-2, .cls-3, .cls-4, .cls-5 {
        stroke-width: 0px;
      }

      .cls-2 {
        fill: #d0dce6;
      }

      .cls-3 {
        fill: #e9ecee;
      }

      .cls-4 {
        fill: #fff;
      }

      .cls-5 {
        fill: #f7f9fb;
      }
    </style>
  </defs>
  <path class="cls-3" d="m31.24,42.3c.42,0,.76-.34.76-.76V8.45c0-.2-.08-.39-.22-.53L24.07.22c-.14-.14-.33-.22-.53-.22H.76c-.42,0-.76.34-.76.76v40.77c0,.42.34.76.76.76h30.47Z"/>
  <path class="cls-2" d="m23.86,0v6.31c0,1.01.82,1.83,1.83,1.83h6.31L23.86,0Z"/>
  <path class="cls-1" d="m0,30.43v11.1c0,.42.34.76.76.76h30.47c.42,0,.76-.34.76-.76v-11.1H0Z"/>
  <g>
    <path class="cls-4" d="m8.01,37.66v2.68h-1.57v-7.6h2.97c.57,0,1.07.1,1.51.31.43.21.77.51,1,.89.23.38.35.82.35,1.31,0,.75-.26,1.33-.77,1.76-.51.43-1.22.64-2.12.64h-1.37Zm0-1.27h1.4c.41,0,.73-.1.95-.29s.33-.47.33-.84-.11-.67-.33-.9c-.22-.23-.52-.35-.91-.36h-1.44v2.39Z"/>
    <path class="cls-4" d="m13.34,40.34v-7.6h2.34c.67,0,1.27.15,1.79.45.53.3.94.73,1.24,1.28.3.56.44,1.19.44,1.89v.35c0,.71-.15,1.34-.44,1.89-.29.55-.7.98-1.23,1.28-.53.3-1.13.46-1.79.46h-2.36Zm1.57-6.33v5.08h.76c.61,0,1.08-.2,1.4-.6.32-.4.49-.97.5-1.72v-.4c0-.77-.16-1.36-.48-1.76-.32-.4-.79-.6-1.4-.6h-.77Z"/>
    <path class="cls-4" d="m24.87,37.23h-3.01v3.11h-1.57v-7.6h4.95v1.27h-3.38v1.96h3.01v1.26Z"/>
  </g>
  <path class="cls-1" d="m7.69,26.66c-.59,0-1.19-.22-1.56-.75-.36-.52-.41-1.26-.13-1.92.24-.57.68-1,1.03-1.32,1.48-1.32,3.25-2.14,5.12-2.81,1.08-2.03,1.93-4.08,2.48-6.06-.77-1.62-1.44-3.44-1.49-5.38-.01-.45,0-1.03.27-1.55.32-.63.95-1.03,1.58-.99.61.04,1.17.48,1.42,1.12.2.5.2,1.01.19,1.48h0c-.04,1.38-.21,2.78-.5,4.14-.07.35-.16.7-.25,1.05.13.26.27.52.4.77.61,1.15,1.35,2.44,2.32,3.54,1.61-.32,3.25-.47,4.9-.3.54.05,1.16.16,1.7.49.66.41,1.05,1.11.99,1.8-.05.61-.47,1.18-1.07,1.49-.43.22-.94.32-1.58.31-1.78-.04-3.59-.86-5.11-2.31-.08-.07-.15-.15-.23-.22-1.31.29-2.59.68-3.85,1.08-.46.15-.92.3-1.37.45-.76,1.39-1.63,2.76-2.6,4.09-.44.61-.93,1.23-1.67,1.57-.3.14-.64.22-.99.22Zm3.58-5.24c-1.28.54-2.46,1.2-3.47,2.1-.28.25-.59.55-.74.91-.13.3-.12.62.02.82.21.31.76.33,1.13.16.49-.23.88-.72,1.23-1.21.66-.91,1.27-1.84,1.84-2.78Zm8.29-2.44c1.23,1.04,2.62,1.63,3.98,1.66.44,0,.78-.05,1.03-.18.25-.13.44-.36.46-.58.02-.25-.16-.54-.45-.72-.34-.21-.79-.28-1.22-.33-1.26-.13-2.53-.05-3.8.15Zm-4.17-3.72c-.44,1.34-1.01,2.71-1.68,4.07.09-.03.18-.06.27-.09,1.09-.35,2.2-.69,3.34-.97-.78-.98-1.4-2.04-1.93-3.02Zm-.48-8.24c-.16,0-.36.15-.47.36-.15.29-.16.67-.15,1,.03,1.23.35,2.43.79,3.56.22-1.15.35-2.33.39-3.49.01-.37.01-.73-.11-1.02-.09-.23-.28-.4-.44-.41,0,0-.01,0-.02,0Z"/>
  <rect class="cls-5" y="30.18" width="32" height=".25"/>
</svg>