<svg xmlns="http://www.w3.org/2000/svg" viewBox="0 0 275 28"><defs><style>.a{fill:#fff;opacity:0;}.b{fill:#222;}</style></defs><title>55Untitled-2</title><rect class="a" width="275" height="28"/><path class="b" d="M15.37286,9.18312a5.33719,5.33719,0,0,0-2.77873-.87105,4.44385,4.44385,0,0,0-2.44959.70648,4.72589,4.72589,0,0,0-1.71,1.95685,6.37105,6.37105,0,0,0-.60813,2.82791,6.47566,6.47566,0,0,0,.60813,2.844,4.82008,4.82008,0,0,0,1.71,1.99,4.36209,4.36209,0,0,0,2.44959.72353,5.86751,5.86751,0,0,0,2.68039-.74059A9.15109,9.15109,0,0,0,17.823,16.66433l4.40593,4.70148a14.45682,14.45682,0,0,1-4.6528,3.40392,12.71975,12.71975,0,0,1-11.64078-.296,11.27212,11.27212,0,0,1-4.35677-4.34021A12.39393,12.39393,0,0,1,0,13.90166,11.7762,11.7762,0,0,1,1.61114,7.76917,11.42079,11.42079,0,0,1,6.06676,3.51025a13.253,13.253,0,0,1,6.429-1.54542,13.09762,13.09762,0,0,1,5.294,1.1681,12.9753,12.9753,0,0,1,4.43905,3.10688L17.823,11.46813A8.37877,8.37877,0,0,0,15.37286,9.18312Z"/><path class="b" d="M41.46578,3.51025a11.41927,11.41927,0,0,1,4.52134,4.275,11.77988,11.77988,0,0,1,1.62771,6.14954,12.01206,12.01206,0,0,1-1.62771,6.21478,11.44816,11.44816,0,0,1-4.52134,4.32415,13.49565,13.49565,0,0,1-6.51131,1.56147,13.49087,13.49087,0,0,1-6.51081-1.56147,11.44488,11.44488,0,0,1-4.52134-4.32415,12.00718,12.00718,0,0,1-1.62771-6.21478,11.8317,11.8317,0,0,1,1.62771-6.18166,11.29522,11.29522,0,0,1,4.52134-4.25892,13.71591,13.71591,0,0,1,6.51081-1.52936A13.61263,13.61263,0,0,1,41.46578,3.51025ZM32.60373,9.05166a5.29853,5.29853,0,0,0-1.80884,2.02209,6.12488,6.12488,0,0,0-.67386,2.89414,6.22192,6.22192,0,0,0,.67386,2.91019,5.40722,5.40722,0,0,0,1.80884,2.0552,4.33323,4.33323,0,0,0,2.44958.75565,4.16533,4.16533,0,0,0,2.40041-.73959,5.03118,5.03118,0,0,0,1.71-2.0552,6.74013,6.74013,0,0,0,.62468-2.92625,6.63748,6.63748,0,0,0-.62468-2.9102,4.93986,4.93986,0,0,0-1.71-2.02309,4.23971,4.23971,0,0,0-2.40041-.72253A4.39446,4.39446,0,0,0,32.60373,9.05166Z"/><path class="b" d="M49.75181,2.45856h8.08934L63.5627,14.49373,69.25163,2.45856H77.341V25.50932H70.66559V12.88208L66.02884,23.27349h-4.9654L56.4272,12.88208V25.50932H49.75181Z"/><path class="b" d="M98.41882,4.61211a7.66624,7.66624,0,0,1,2.46614,6.10037,8.47832,8.47832,0,0,1-2.46614,6.49375q-2.46639,2.31813-6.97142,2.31813H88.25772v5.985H80.629V2.45856H91.4474Q95.95193,2.45856,98.41882,4.61211Zm-5.44206,8.38538a2.93972,2.93972,0,0,0,.67386-2.0552,2.76854,2.76854,0,0,0-.67386-1.989A2.53188,2.53188,0,0,0,91.053,8.24584h-2.7953v5.49124H91.053A2.46908,2.46908,0,0,0,92.97676,12.99749Z"/><path class="b" d="M118.0496,25.50932l-1.151-3.2554h-8.6478l-1.18415,3.2554H99.2407l9.7331-23.05076h7.82643l9.37183,23.05076Zm-7.82592-8.71352h4.80082l-2.36779-6.74162Z"/><path class="b" d="M142.97493,2.45856h6.9057V25.50932h-6.37935l-9.0758-11.77224V25.50932h-6.93831V2.45856h6.37935L142.97493,14.296Z"/><path class="b" d="M175.49638,2.45856l-8.25392,15.88265v7.16811h-7.62873V18.50579l-8.418-16.04723h7.59612l4.63624,8.87811,4.47167-8.87811Z"/><path class="b" d="M195.45631,2.52379h2.23583V25.50932h-2.40041L181.05284,6.04312v19.4662h-2.26895V2.52379h2.40142l14.271,19.46721Z"/><path class="b" d="M222.12374,25.50932l-2.72856-6.11643h-12.7587L203.94,25.50932h-2.43352L211.8648,2.52379h2.36729l10.35829,22.98553Zm-14.60015-8.15457h10.98348L212.98271,4.9242Z"/><path class="b" d="M228.37063,2.49168h2.82891l9.00957,17.26348,8.91122-17.26348h2.8279V25.50932h-2.10437l-.03311-19.86158-9.00957,17.396H239.5518l-9.04368-17.396V25.50932h-2.13749Z"/><path class="b" d="M259.18258,2.52379H274.5725V4.56294h-13.121v8.2208h11.74013v2.03914H261.45153v8.6483H275v2.03814H259.18258Z"/></svg>