<svg id="Layer_1" data-name="Layer 1" xmlns="http://www.w3.org/2000/svg" viewBox="0 0 350 350"><defs><style>.cls-1{fill:none;}.cls-2{fill:#ccc;}</style></defs><rect class="cls-1" width="350" height="350"/><path class="cls-2" d="M248.26,45.86H101.08a5.77,5.77,0,0,0-5.77,5.77V161.31a5.77,5.77,0,0,0,5.77,5.77H248.26a5.76,5.76,0,0,0,5.76-5.77V51.63A5.76,5.76,0,0,0,248.26,45.86Zm-1.92,75.62-12.42-5.61a30.64,30.64,0,0,0-27.16,1l-1.35.74a32.27,32.27,0,0,1-42.32-10.21,30.42,30.42,0,0,0-25.2-13.34h-.08a30.42,30.42,0,0,0-25.21,13.47L103,121.87V59.3a5.76,5.76,0,0,1,5.76-5.76H240.58a5.76,5.76,0,0,1,5.76,5.76Z"/><circle class="cls-2" cx="217.77" cy="80.07" r="15.72" transform="translate(89.2 273.22) rotate(-76.54)"/><path class="cls-2" d="M67.09,296.31a6.67,6.67,0,0,1-.6,2.61,9.52,9.52,0,0,1-5.14,5,11.77,11.77,0,0,1-4.63.85,16.34,16.34,0,0,1-3.64-.38,10.33,10.33,0,0,1-3-1.19,10.08,10.08,0,0,1-2.46-2.11,12.67,12.67,0,0,1-1.71-2.67,14.42,14.42,0,0,1-1.06-3.15,16.93,16.93,0,0,1-.35-3.56,15.58,15.58,0,0,1,.89-5.47A11.77,11.77,0,0,1,48,282.07a11.07,11.07,0,0,1,3.89-2.61,12.55,12.55,0,0,1,4.75-.9,11.94,11.94,0,0,1,5.47,1.22,10,10,0,0,1,3.68,3A6,6,0,0,1,67,286.22a2.25,2.25,0,0,1-.62,1.56,2,2,0,0,1-1.51.67,2.06,2.06,0,0,1-1.47-.46,6.53,6.53,0,0,1-1.1-1.61A7.82,7.82,0,0,0,60,283.56a5.76,5.76,0,0,0-3.34-.93,6,6,0,0,0-5,2.4,10.87,10.87,0,0,0-1.88,6.82,12.76,12.76,0,0,0,.83,4.92,6.26,6.26,0,0,0,2.35,2.92,6.44,6.44,0,0,0,3.56,1,6.2,6.2,0,0,0,3.74-1.1,6.6,6.6,0,0,0,2.3-3.22,5.63,5.63,0,0,1,.81-1.63,1.85,1.85,0,0,1,1.56-.63,2.16,2.16,0,0,1,1.57.64A2.14,2.14,0,0,1,67.09,296.31Z"/><path class="cls-2" d="M82.83,278.56a13.55,13.55,0,0,1,6.76,1.59,10.35,10.35,0,0,1,4.28,4.55,15.4,15.4,0,0,1,1.45,6.91,16.91,16.91,0,0,1-.8,5.34,11.49,11.49,0,0,1-2.38,4.16,10.45,10.45,0,0,1-3.9,2.69,14.12,14.12,0,0,1-5.3.94,13.94,13.94,0,0,1-5.32-1,10.48,10.48,0,0,1-3.92-2.71,11.58,11.58,0,0,1-2.38-4.19,17.11,17.11,0,0,1-.8-5.3,16.37,16.37,0,0,1,.84-5.36,11.51,11.51,0,0,1,2.43-4.14,10.46,10.46,0,0,1,3.86-2.62A14,14,0,0,1,82.83,278.56Zm7.29,13a11.85,11.85,0,0,0-.9-4.82,6.66,6.66,0,0,0-2.56-3.08,7.4,7.4,0,0,0-6.67-.47,6.36,6.36,0,0,0-2.24,1.68,8.15,8.15,0,0,0-1.49,2.83,12.81,12.81,0,0,0-.54,3.86,13.13,13.13,0,0,0,.54,3.9,8.11,8.11,0,0,0,1.54,2.89,6.38,6.38,0,0,0,2.28,1.72,6.9,6.9,0,0,0,2.82.57,7,7,0,0,0,3.62-1,6.89,6.89,0,0,0,2.63-3A11.77,11.77,0,0,0,90.12,291.58Z"/><path class="cls-2" d="M108.25,300.49l-4-16.13v17.47a3.19,3.19,0,0,1-.65,2.18,2.21,2.21,0,0,1-1.72.73,2.17,2.17,0,0,1-1.69-.72,3.15,3.15,0,0,1-.66-2.19v-20a2.51,2.51,0,0,1,.86-2.23,4.14,4.14,0,0,1,2.34-.58h1.58a6.09,6.09,0,0,1,2.08.26,1.69,1.69,0,0,1,1,.93,13.69,13.69,0,0,1,.71,2.19l3.68,13.87,3.68-13.87a13.69,13.69,0,0,1,.71-2.19,1.7,1.7,0,0,1,1-.93,6.17,6.17,0,0,1,2.08-.26h1.59a4.08,4.08,0,0,1,2.33.58,2.49,2.49,0,0,1,.87,2.23v20a3.19,3.19,0,0,1-.65,2.18,2.23,2.23,0,0,1-1.74.73,2.18,2.18,0,0,1-1.67-.73,3.14,3.14,0,0,1-.66-2.18V284.36l-4.05,16.13c-.27,1.05-.48,1.81-.65,2.3a3.2,3.2,0,0,1-.93,1.34,2.69,2.69,0,0,1-1.86.61,2.73,2.73,0,0,1-2.49-1.39,5.45,5.45,0,0,1-.54-1.33Z"/><path class="cls-2" d="M129.37,301.61V281.67a3.39,3.39,0,0,1,.71-2.34,2.61,2.61,0,0,1,3.7,0,3.31,3.31,0,0,1,.72,2.34v19.94a3.36,3.36,0,0,1-.72,2.35,2.41,2.41,0,0,1-1.87.78,2.37,2.37,0,0,1-1.82-.79A3.34,3.34,0,0,1,129.37,301.61Z"/><path class="cls-2" d="M146.92,281.63l9.86,14.92V281.49a3.3,3.3,0,0,1,.63-2.2,2.11,2.11,0,0,1,1.7-.73,2.18,2.18,0,0,1,1.74.73,3.25,3.25,0,0,1,.64,2.2V301.4c0,2.22-.92,3.34-2.76,3.34a3.77,3.77,0,0,1-1.25-.2,3.49,3.49,0,0,1-1-.63,6.81,6.81,0,0,1-.9-1c-.28-.39-.55-.78-.83-1.19L145.1,287V301.8a3.14,3.14,0,0,1-.67,2.19,2.21,2.21,0,0,1-1.73.75A2.18,2.18,0,0,1,141,304a3.19,3.19,0,0,1-.66-2.18V282.27a5.37,5.37,0,0,1,.28-1.95,2.78,2.78,0,0,1,1.09-1.27,2.92,2.92,0,0,1,1.64-.49,2.83,2.83,0,0,1,1.18.22,2.64,2.64,0,0,1,.86.61,6.08,6.08,0,0,1,.76,1Z"/><path class="cls-2" d="M190.23,294v4.85a5.35,5.35,0,0,1-.19,1.55,2.43,2.43,0,0,1-.7,1,6.36,6.36,0,0,1-1.31.9,20.39,20.39,0,0,1-4.42,1.82,17.8,17.8,0,0,1-4.63.57,15.11,15.11,0,0,1-5.32-.9,11.21,11.21,0,0,1-4.09-2.61,11.58,11.58,0,0,1-2.6-4.14,15.64,15.64,0,0,1-.9-5.44,15.87,15.87,0,0,1,.88-5.41,11,11,0,0,1,2.59-4.16,11.4,11.4,0,0,1,4.16-2.62,16.05,16.05,0,0,1,5.56-.9,13.64,13.64,0,0,1,4.52.68A9.86,9.86,0,0,1,187,281a7.72,7.72,0,0,1,1.85,2.19,4.51,4.51,0,0,1,.62,2.06,2.17,2.17,0,0,1-.72,1.64,2.39,2.39,0,0,1-1.72.69,2.34,2.34,0,0,1-1.06-.26,2.49,2.49,0,0,1-.85-.73,20.15,20.15,0,0,0-1.61-2.24,5.12,5.12,0,0,0-1.77-1.28,6.67,6.67,0,0,0-2.84-.52,8,8,0,0,0-3.18.61,6.66,6.66,0,0,0-2.39,1.78,8.05,8.05,0,0,0-1.52,2.86,12.64,12.64,0,0,0-.52,3.75q0,4.46,2,6.85a7.11,7.11,0,0,0,5.71,2.4,11.67,11.67,0,0,0,3.34-.46,17.3,17.3,0,0,0,3.17-1.33v-4.11h-4a4.44,4.44,0,0,1-2.17-.43,1.57,1.57,0,0,1-.73-1.47,1.79,1.79,0,0,1,.61-1.4,2.39,2.39,0,0,1,1.67-.55h5.81a7.31,7.31,0,0,1,1.82.19,2.07,2.07,0,0,1,1.2.84A3.52,3.52,0,0,1,190.23,294Z"/><path class="cls-2" d="M223.19,296.71a7.4,7.4,0,0,1-1.18,4.12,7.89,7.89,0,0,1-3.47,2.87,12.94,12.94,0,0,1-5.4,1,12.18,12.18,0,0,1-6.18-1.42,8.31,8.31,0,0,1-2.81-2.72,6.17,6.17,0,0,1-1.08-3.31,2.25,2.25,0,0,1,2.3-2.26,1.92,1.92,0,0,1,1.37.52,3.92,3.92,0,0,1,1,1.54,10,10,0,0,0,1.05,2,4.18,4.18,0,0,0,1.58,1.33A5.68,5.68,0,0,0,213,301a6,6,0,0,0,3.71-1.06,3.19,3.19,0,0,0,1.42-2.65,2.83,2.83,0,0,0-.77-2.05,5,5,0,0,0-2-1.2c-.82-.27-1.9-.57-3.26-.88a23.57,23.57,0,0,1-4.57-1.49,7.37,7.37,0,0,1-2.91-2.33,6.07,6.07,0,0,1-1.08-3.67,6.32,6.32,0,0,1,1.14-3.72,7.21,7.21,0,0,1,3.29-2.49,13.58,13.58,0,0,1,5.08-.87,12.42,12.42,0,0,1,4,.58,8.39,8.39,0,0,1,2.83,1.53,6.64,6.64,0,0,1,1.64,2,4.76,4.76,0,0,1,.52,2.06,2.44,2.44,0,0,1-.65,1.65,2.06,2.06,0,0,1-1.62.73,1.9,1.9,0,0,1-1.34-.44,6,6,0,0,1-1-1.44,6.49,6.49,0,0,0-1.66-2.24,4.86,4.86,0,0,0-3.1-.8,5.4,5.4,0,0,0-3.21.87,2.54,2.54,0,0,0-1.22,2.1,2.1,2.1,0,0,0,.42,1.31,3.49,3.49,0,0,0,1.14.95,7.19,7.19,0,0,0,1.47.62c.49.15,1.31.37,2.45.66a35.87,35.87,0,0,1,3.88,1.11,11.94,11.94,0,0,1,3,1.46,6.17,6.17,0,0,1,1.9,2.19A7.06,7.06,0,0,1,223.19,296.71Z"/><path class="cls-2" d="M238.68,278.56a13.55,13.55,0,0,1,6.76,1.59,10.33,10.33,0,0,1,4.27,4.55,15.4,15.4,0,0,1,1.46,6.91,16.91,16.91,0,0,1-.8,5.34,11.49,11.49,0,0,1-2.38,4.16,10.41,10.41,0,0,1-3.91,2.69,14.12,14.12,0,0,1-5.3.94,14,14,0,0,1-5.32-1,10.56,10.56,0,0,1-3.92-2.71,11.71,11.71,0,0,1-2.37-4.19,17.11,17.11,0,0,1-.8-5.3,16.37,16.37,0,0,1,.84-5.36,11.35,11.35,0,0,1,2.42-4.14,10.58,10.58,0,0,1,3.87-2.62A14,14,0,0,1,238.68,278.56Zm7.29,13a11.85,11.85,0,0,0-.9-4.82,6.62,6.62,0,0,0-2.57-3.08,7.38,7.38,0,0,0-6.66-.47,6.4,6.4,0,0,0-2.25,1.68,8.14,8.14,0,0,0-1.48,2.83,12.81,12.81,0,0,0-.54,3.86,13.13,13.13,0,0,0,.54,3.9,7.81,7.81,0,0,0,1.54,2.89,6.38,6.38,0,0,0,2.28,1.72,6.83,6.83,0,0,0,2.82.57,7,7,0,0,0,3.62-1,6.81,6.81,0,0,0,2.62-3A11.77,11.77,0,0,0,246,291.58Z"/><path class="cls-2" d="M266.69,278.56a13.57,13.57,0,0,1,6.76,1.59,10.33,10.33,0,0,1,4.27,4.55,15.4,15.4,0,0,1,1.45,6.91,16.92,16.92,0,0,1-.79,5.34,11.49,11.49,0,0,1-2.38,4.16,10.41,10.41,0,0,1-3.91,2.69,14.12,14.12,0,0,1-5.3.94,14,14,0,0,1-5.32-1,10.56,10.56,0,0,1-3.92-2.71,11.71,11.71,0,0,1-2.37-4.19,16.82,16.82,0,0,1-.8-5.3,16.65,16.65,0,0,1,.83-5.36,11.51,11.51,0,0,1,2.43-4.14,10.58,10.58,0,0,1,3.87-2.62A14,14,0,0,1,266.69,278.56Zm7.29,13a11.85,11.85,0,0,0-.9-4.82,6.68,6.68,0,0,0-2.57-3.08,7.38,7.38,0,0,0-6.66-.47,6.4,6.4,0,0,0-2.25,1.68,8.14,8.14,0,0,0-1.48,2.83,12.8,12.8,0,0,0-.55,3.86,13.12,13.12,0,0,0,.55,3.9,7.81,7.81,0,0,0,1.54,2.89,6.43,6.43,0,0,0,2.27,1.72,6.91,6.91,0,0,0,2.83.57,7,7,0,0,0,3.62-1,6.81,6.81,0,0,0,2.62-3A11.77,11.77,0,0,0,274,291.58Z"/><path class="cls-2" d="M290.24,281.63l9.86,14.92V281.49a3.3,3.3,0,0,1,.63-2.2,2.12,2.12,0,0,1,1.7-.73,2.2,2.2,0,0,1,1.75.73,3.3,3.3,0,0,1,.64,2.2V301.4c0,2.22-.92,3.34-2.77,3.34a3.71,3.71,0,0,1-1.24-.2,3.53,3.53,0,0,1-1-.63,6.24,6.24,0,0,1-.89-1c-.28-.39-.56-.78-.83-1.19L288.43,287V301.8a3.14,3.14,0,0,1-.67,2.19,2.23,2.23,0,0,1-1.73.75,2.19,2.19,0,0,1-1.75-.76,3.24,3.24,0,0,1-.65-2.18V282.27a5.37,5.37,0,0,1,.28-1.95,2.76,2.76,0,0,1,1.08-1.27,3,3,0,0,1,1.64-.49,2.63,2.63,0,0,1,2.05.83,6.08,6.08,0,0,1,.76,1C289.7,280.77,290,281.19,290.24,281.63Z"/><path class="cls-2" d="M66.34,245.46h-10v15.19a7.13,7.13,0,0,1-1.53,4.94,5.41,5.41,0,0,1-7.83,0,7,7,0,0,1-1.5-4.88V219.38q0-3.58,1.64-5.13t5.24-1.53H66.34a36.28,36.28,0,0,1,9.51.95,14.27,14.27,0,0,1,5.69,3,13.72,13.72,0,0,1,3.64,5.2,18.26,18.26,0,0,1,1.24,6.91q0,8.2-5,12.43T66.34,245.46ZM63.7,220.88H56.38v16.39H63.7a21.73,21.73,0,0,0,6.42-.81,7.49,7.49,0,0,0,3.94-2.63,7.89,7.89,0,0,0,1.35-4.8,8.14,8.14,0,0,0-2.09-5.78Q71,220.88,63.7,220.88Z"/><path class="cls-2" d="M106.44,218.39v15.36h23.45V218.39a7.17,7.17,0,0,1,1.48-4.94,5,5,0,0,1,3.9-1.65,5.2,5.2,0,0,1,4,1.63,7.08,7.08,0,0,1,1.52,5v42.26a7.08,7.08,0,0,1-1.54,5,5.15,5.15,0,0,1-3.95,1.65,5,5,0,0,1-3.92-1.67,7.31,7.31,0,0,1-1.46-5v-18H106.44v18a7.08,7.08,0,0,1-1.54,5,5.15,5.15,0,0,1-4,1.65A5,5,0,0,1,97,265.6a7.31,7.31,0,0,1-1.46-5V218.39A7.27,7.27,0,0,1,97,213.45,5,5,0,0,1,101,211.8a5.2,5.2,0,0,1,4,1.63A7.08,7.08,0,0,1,106.44,218.39Z"/><path class="cls-2" d="M176,211.8a28.6,28.6,0,0,1,14.32,3.39,21.9,21.9,0,0,1,9.06,9.62,32.77,32.77,0,0,1,3.07,14.65,35.91,35.91,0,0,1-1.68,11.31,24.52,24.52,0,0,1-5.05,8.82,22.09,22.09,0,0,1-8.27,5.7,32.56,32.56,0,0,1-22.5-.05,22.36,22.36,0,0,1-8.31-5.73,24.45,24.45,0,0,1-5-8.89,36,36,0,0,1-1.7-11.23,34.76,34.76,0,0,1,1.77-11.34,24.31,24.31,0,0,1,5.15-8.78,22.12,22.12,0,0,1,8.19-5.55A29.53,29.53,0,0,1,176,211.8Zm15.44,27.59a25.31,25.31,0,0,0-1.9-10.21,14.2,14.2,0,0,0-5.44-6.53,15.74,15.74,0,0,0-14.12-1,13.31,13.31,0,0,0-4.76,3.57,16.93,16.93,0,0,0-3.14,6,27,27,0,0,0-1.16,8.18,27.68,27.68,0,0,0,1.16,8.27,16.88,16.88,0,0,0,3.25,6.13,13.72,13.72,0,0,0,4.83,3.64,15.32,15.32,0,0,0,13.65-.88,14.44,14.44,0,0,0,5.56-6.44A24.87,24.87,0,0,0,191.47,239.39Z"/><path class="cls-2" d="M243.75,221.68H231.9v39a7.16,7.16,0,0,1-1.5,5,5,5,0,0,1-3.88,1.63,5.09,5.09,0,0,1-3.93-1.65,7.07,7.07,0,0,1-1.52-5v-39H209.21a6,6,0,0,1-4.13-1.23,4.54,4.54,0,0,1,0-6.53,6.13,6.13,0,0,1,4.08-1.2h34.54a6.06,6.06,0,0,1,4.19,1.24,4.18,4.18,0,0,1,1.37,3.26,4.07,4.07,0,0,1-1.39,3.23A6.11,6.11,0,0,1,243.75,221.68Z"/><path class="cls-2" d="M278.36,211.8a28.61,28.61,0,0,1,14.33,3.39,21.82,21.82,0,0,1,9.05,9.62,32.77,32.77,0,0,1,3.08,14.65,35.91,35.91,0,0,1-1.68,11.31,24.67,24.67,0,0,1-5.05,8.82,22.09,22.09,0,0,1-8.27,5.7,32.59,32.59,0,0,1-22.51-.05,22.4,22.4,0,0,1-8.3-5.73,24.31,24.31,0,0,1-5-8.89,35.71,35.71,0,0,1-1.7-11.23,34.76,34.76,0,0,1,1.77-11.34,24.29,24.29,0,0,1,5.14-8.78,22.24,22.24,0,0,1,8.2-5.55A29.52,29.52,0,0,1,278.36,211.8Zm15.44,27.59a25.14,25.14,0,0,0-1.9-10.21,14.24,14.24,0,0,0-5.43-6.53,14.93,14.93,0,0,0-8.11-2.21,14.74,14.74,0,0,0-6,1.22,13.22,13.22,0,0,0-4.76,3.57,17.11,17.11,0,0,0-3.15,6,27,27,0,0,0-1.15,8.18,27.69,27.69,0,0,0,1.15,8.27,17,17,0,0,0,3.26,6.13,13.72,13.72,0,0,0,4.83,3.64,15.32,15.32,0,0,0,13.65-.88,14.5,14.5,0,0,0,5.56-6.44A25,25,0,0,0,293.8,239.39Z"/></svg>